<?xml version="1.0" encoding="UTF-8" standalone="no"?>
<svg xmlns="http://www.w3.org/2000/svg"
     xmlns:svg="http://www.w3.org/2000/svg"
     version="1.1"
     width="31.25in" height="55.5556in"
     viewBox="0 0 2250 4000">
  <path id="path1"
        fill="white" stroke="black" stroke-width="1"
        d="M 572.00,780.00
           C 586.61,775.53 611.16,776.82 627.00,777.00
             636.04,777.11 653.50,782.25 663.00,784.63
             663.00,784.63 709.00,797.51 709.00,797.51
             709.00,797.51 728.00,809.00 728.00,809.00
             734.13,813.07 742.64,819.19 747.00,825.00
             739.33,832.84 730.51,841.05 728.00,852.00
             728.00,852.00 685.00,834.45 685.00,834.45
             667.30,827.43 635.88,819.03 617.00,819.00
             617.00,819.00 600.00,819.00 600.00,819.00
             591.87,819.01 590.69,819.75 582.86,822.00
             582.86,822.00 582.86,806.00 582.86,806.00
             582.86,806.00 572.00,780.00 572.00,780.00 Z
           M 901.00,860.00
           C 907.15,857.42 927.56,852.65 934.00,853.09
             934.00,853.09 968.00,861.13 968.00,861.13
             968.00,861.13 1016.00,873.47 1016.00,873.47
             1021.37,875.67 1028.61,881.34 1034.00,884.55
             1034.00,884.55 1060.00,898.00 1060.00,898.00
             1060.00,898.00 1046.98,917.00 1046.98,917.00
             1046.98,917.00 1046.00,932.00 1046.00,932.00
             1040.86,930.54 1037.51,927.25 1033.00,924.42
             1025.70,919.84 1011.44,910.49 1004.00,907.45
             989.24,901.42 961.85,894.02 946.00,894.00
             946.00,894.00 914.00,896.00 914.00,896.00
             914.00,896.00 913.36,884.00 913.36,884.00
             913.36,884.00 901.00,860.00 901.00,860.00 Z
           M 1334.00,900.00
           C 1329.62,882.20 1333.80,891.49 1325.60,871.00
             1324.48,868.21 1321.33,861.89 1322.35,859.11
             1323.99,854.63 1330.18,855.01 1334.00,855.00
             1359.69,854.96 1375.03,857.06 1400.00,862.58
             1400.00,862.58 1420.00,867.36 1420.00,867.36
             1420.00,867.36 1454.00,881.26 1454.00,881.26
             1454.00,881.26 1478.00,893.00 1478.00,893.00
             1478.00,893.00 1462.00,933.00 1462.00,933.00
             1462.00,933.00 1452.99,924.97 1452.99,924.97
             1446.51,920.69 1425.11,912.55 1417.00,909.65
             1417.00,909.65 1391.00,899.90 1391.00,899.90
             1380.30,897.17 1370.01,896.02 1359.00,896.00
             1359.00,896.00 1347.00,895.04 1347.00,895.04
             1347.00,895.04 1334.00,895.04 1334.00,895.04
             1334.00,895.04 1334.00,900.00 1334.00,900.00 Z
           M 1337.00,1006.00
           C 1337.00,1006.00 1347.00,1008.87 1347.00,1008.87
             1347.00,1008.87 1373.00,1015.13 1373.00,1015.13
             1373.00,1015.13 1455.00,1035.63 1455.00,1035.63
             1455.00,1035.63 1466.00,1038.25 1466.00,1038.25
             1471.75,1039.04 1469.45,1037.47 1479.00,1039.58
             1482.72,1040.40 1486.96,1040.83 1489.40,1044.14
             1491.35,1046.79 1491.03,1050.84 1491.00,1054.00
             1490.95,1058.21 1490.73,1058.95 1490.00,1063.00
             1490.00,1063.00 1402.00,1041.63 1402.00,1041.63
             1402.00,1041.63 1336.00,1026.00 1336.00,1026.00
             1336.00,1026.00 1337.00,1006.00 1337.00,1006.00 Z
           M 1710.00,1062.00
           C 1710.00,1062.00 1729.00,1059.10 1729.00,1059.10
             1729.00,1059.10 1751.00,1061.72 1751.00,1061.72
             1751.00,1061.72 1768.00,1063.32 1768.00,1063.32
             1773.81,1064.36 1799.86,1073.58 1805.00,1076.44
             1809.81,1079.11 1825.81,1088.34 1828.30,1092.30
             1830.19,1095.31 1827.96,1099.12 1826.72,1102.00
             1823.28,1110.00 1820.39,1116.03 1812.00,1120.00
             1806.78,1114.08 1794.48,1108.74 1787.00,1105.95
             1787.00,1105.95 1769.00,1100.56 1769.00,1100.56
             1769.00,1100.56 1759.00,1096.89 1759.00,1096.89
             1748.19,1093.60 1735.75,1093.89 1725.00,1096.89
             1725.00,1096.89 1721.91,1086.00 1721.91,1086.00
             1721.91,1086.00 1710.00,1062.00 1710.00,1062.00 Z
           M 1337.00,1117.00
           C 1337.00,1117.00 1372.00,1113.01 1372.00,1113.01
             1380.35,1113.20 1421.08,1119.72 1429.00,1122.22
             1429.00,1122.22 1452.00,1132.69 1452.00,1132.69
             1452.00,1132.69 1472.00,1139.67 1472.00,1139.67
             1481.17,1142.75 1485.80,1144.31 1494.00,1149.66
             1495.64,1150.73 1499.28,1152.85 1500.30,1154.38
             1502.14,1157.15 1500.03,1160.43 1498.75,1163.00
             1496.35,1167.83 1488.52,1182.99 1483.96,1184.87
             1480.51,1186.30 1475.16,1182.36 1472.00,1180.76
             1472.00,1180.76 1440.00,1165.85 1440.00,1165.85
             1437.42,1164.74 1429.87,1161.24 1427.58,1160.93
             1423.44,1160.54 1422.59,1163.04 1407.00,1160.93
             1407.00,1160.93 1380.00,1156.82 1380.00,1156.82
             1373.53,1155.48 1375.92,1154.06 1367.00,1154.00
             1367.00,1154.00 1350.00,1154.00 1350.00,1154.00
             1349.83,1135.45 1340.07,1129.89 1337.00,1117.00 Z
           M 528.00,1140.00
           C 528.00,1140.00 570.00,1135.04 570.00,1135.04
             570.00,1135.04 587.00,1136.00 587.00,1136.00
             599.06,1136.02 611.13,1138.27 623.00,1140.25
             652.15,1145.11 648.47,1144.19 676.00,1154.58
             676.00,1154.58 694.00,1161.66 694.00,1161.66
             694.00,1161.66 719.00,1178.00 719.00,1178.00
             719.00,1178.00 703.91,1202.00 703.91,1202.00
             703.91,1202.00 700.00,1216.00 700.00,1216.00
             694.23,1214.09 690.19,1210.13 685.00,1207.09
             685.00,1207.09 669.00,1200.42 669.00,1200.42
             649.49,1193.00 624.80,1187.18 604.00,1185.04
             604.00,1185.04 595.00,1185.04 595.00,1185.04
             595.00,1185.04 584.00,1184.00 584.00,1184.00
             584.00,1184.00 571.00,1184.91 571.00,1184.91
             559.88,1185.67 548.46,1185.49 538.00,1190.00
             538.00,1190.00 537.47,1168.00 537.47,1168.00
             537.47,1168.00 528.00,1140.00 528.00,1140.00 Z
           M 901.00,1255.00
           C 901.00,1237.61 901.72,1239.99 893.75,1224.00
             891.99,1220.46 888.87,1215.26 892.09,1211.57
             893.66,1209.78 896.78,1209.99 899.00,1209.72
             899.00,1209.72 919.00,1208.00 919.00,1208.00
             919.00,1208.00 951.00,1208.00 951.00,1208.00
             958.91,1208.01 984.09,1212.07 992.00,1214.16
             992.00,1214.16 1008.00,1219.14 1008.00,1219.14
             1025.25,1224.10 1028.86,1225.77 1044.00,1235.32
             1047.73,1237.67 1050.29,1238.94 1053.42,1242.18
             1054.98,1243.80 1057.70,1246.63 1057.67,1249.00
             1057.62,1252.72 1047.12,1262.55 1045.01,1267.00
             1042.93,1271.36 1045.34,1276.98 1041.69,1278.30
             1038.95,1279.29 1032.54,1275.56 1030.00,1274.22
             1020.73,1269.33 1012.23,1263.96 1002.00,1261.15
             990.81,1258.08 964.67,1251.13 954.00,1251.00
             929.99,1250.72 926.28,1247.69 901.00,1255.00 Z
           M 1743.00,1254.00
           C 1745.45,1253.51 1748.60,1252.63 1751.00,1252.58
             1751.00,1252.58 1779.00,1257.60 1779.00,1257.60
             1779.00,1257.60 1843.00,1270.13 1843.00,1270.13
             1846.45,1270.63 1858.15,1272.38 1860.27,1274.58
             1861.94,1276.32 1862.55,1280.62 1862.97,1283.00
             1863.38,1285.02 1864.08,1287.81 1862.97,1289.69
             1861.27,1292.43 1857.65,1291.83 1855.00,1291.38
             1855.00,1291.38 1834.00,1287.00 1834.00,1287.00
             1834.00,1287.00 1743.00,1268.00 1743.00,1268.00
             1743.00,1268.00 1743.00,1254.00 1743.00,1254.00 Z
           M 1354.00,1352.00
           C 1358.69,1351.34 1363.22,1349.82 1368.00,1350.09
             1383.54,1350.97 1406.61,1355.18 1422.00,1358.58
             1422.00,1358.58 1479.00,1371.00 1479.00,1371.00
             1479.00,1371.00 1499.96,1375.43 1499.96,1375.43
             1502.94,1375.57 1503.77,1374.59 1506.17,1374.52
             1508.37,1374.47 1522.18,1377.16 1523.85,1378.17
             1527.82,1380.57 1527.63,1389.01 1526.49,1393.00
             1525.85,1395.26 1524.16,1397.90 1523.00,1400.00
             1523.00,1400.00 1395.00,1376.61 1395.00,1376.61
             1395.00,1376.61 1366.00,1371.39 1366.00,1371.39
             1366.00,1371.39 1354.99,1368.26 1354.99,1368.26
             1354.99,1368.26 1354.00,1352.00 1354.00,1352.00 Z
           M 1757.00,1378.00
           C 1765.29,1375.58 1781.65,1371.62 1790.00,1371.09
             1794.34,1370.81 1796.03,1371.45 1800.00,1372.06
             1800.00,1372.06 1810.00,1372.06 1810.00,1372.06
             1810.00,1372.06 1836.00,1378.58 1836.00,1378.58
             1836.00,1378.58 1858.00,1385.52 1858.00,1385.52
             1858.00,1385.52 1877.00,1397.03 1877.00,1397.03
             1879.08,1398.45 1882.81,1400.94 1883.94,1403.17
             1885.38,1406.02 1883.65,1410.07 1882.88,1413.00
             1879.66,1425.29 1879.65,1427.61 1868.00,1435.00
             1849.47,1420.21 1819.70,1411.04 1796.00,1411.00
             1782.30,1410.98 1786.31,1411.52 1774.00,1414.00
             1771.13,1398.83 1761.90,1391.35 1757.00,1378.00 Z
           M 499.00,1403.00
           C 499.00,1403.00 549.00,1410.27 549.00,1410.27
             549.00,1410.27 615.00,1420.42 615.00,1420.42
             615.00,1420.42 658.00,1427.25 658.00,1427.25
             658.00,1427.25 682.00,1430.49 682.00,1430.49
             682.00,1430.49 690.96,1431.00 690.96,1431.00
             690.96,1431.00 690.96,1444.00 690.96,1444.00
             690.96,1444.00 690.00,1456.00 690.00,1456.00
             690.00,1456.00 624.00,1444.42 624.00,1444.42
             624.00,1444.42 498.00,1422.00 498.00,1422.00
             498.00,1422.00 499.00,1403.00 499.00,1403.00 Z
           M 1358.00,1468.00
           C 1371.85,1462.11 1400.62,1459.98 1416.00,1460.00
             1422.55,1460.01 1445.62,1462.76 1452.00,1464.23
             1452.00,1464.23 1466.00,1468.12 1466.00,1468.12
             1477.05,1471.03 1511.20,1481.31 1520.00,1486.04
             1520.00,1486.04 1535.00,1497.00 1535.00,1497.00
             1535.00,1497.00 1528.57,1521.00 1528.57,1521.00
             1527.22,1523.85 1523.01,1528.72 1520.00,1529.77
             1516.34,1531.04 1510.29,1526.49 1507.00,1524.78
             1501.82,1522.09 1482.85,1513.13 1478.00,1511.90
             1478.00,1511.90 1450.00,1505.74 1450.00,1505.74
             1450.00,1505.74 1442.00,1505.74 1442.00,1505.74
             1442.00,1505.74 1432.00,1504.91 1432.00,1504.91
             1424.44,1503.99 1427.52,1502.02 1416.00,1502.00
             1416.00,1502.00 1403.00,1502.00 1403.00,1502.00
             1403.00,1502.00 1372.81,1505.00 1372.81,1505.00
             1372.81,1505.00 1372.81,1497.00 1372.81,1497.00
             1372.81,1497.00 1358.00,1468.00 1358.00,1468.00 Z
           M 882.00,1463.00
           C 882.00,1463.00 901.00,1463.00 901.00,1463.00
             901.00,1463.00 973.00,1472.73 973.00,1472.73
             973.00,1472.73 1042.00,1483.00 1042.00,1483.00
             1043.92,1478.52 1051.13,1481.30 1055.00,1482.00
             1055.00,1482.00 1055.00,1486.00 1055.00,1486.00
             1054.98,1490.32 1053.45,1500.46 1049.50,1502.94
             1047.30,1504.32 1041.59,1502.83 1039.00,1502.42
             1039.00,1502.42 1013.00,1498.59 1013.00,1498.59
             1013.00,1498.59 934.00,1486.73 934.00,1486.73
             934.00,1486.73 883.00,1479.00 883.00,1479.00
             883.00,1479.00 882.00,1463.00 882.00,1463.00 Z
           M 469.00,1580.00
           C 469.00,1580.00 489.00,1571.35 489.00,1571.35
             489.00,1571.35 525.00,1567.83 525.00,1567.83
             525.00,1567.83 546.00,1566.04 546.00,1566.04
             546.00,1566.04 555.00,1566.98 555.00,1566.98
             555.00,1566.98 574.00,1566.98 574.00,1566.98
             583.16,1567.01 592.09,1569.62 601.00,1571.58
             617.93,1575.30 623.18,1575.59 640.00,1582.20
             640.00,1582.20 674.00,1596.75 674.00,1596.75
             677.15,1598.33 684.01,1601.00 685.40,1604.21
             688.34,1610.98 683.40,1617.94 679.63,1623.00
             670.67,1634.99 667.81,1636.06 665.00,1651.00
             659.73,1647.19 659.89,1646.14 655.83,1642.46
             652.99,1639.89 643.40,1633.04 640.00,1631.53
             633.48,1628.63 612.59,1623.86 605.00,1622.59
             597.64,1621.35 591.53,1620.01 584.00,1620.00
             558.29,1619.96 534.46,1619.57 509.00,1624.46
             509.00,1624.46 490.00,1630.00 490.00,1630.00
             490.00,1630.00 489.30,1613.00 489.30,1613.00
             489.30,1613.00 469.00,1580.00 469.00,1580.00 Z
           M 1799.00,1618.00
           C 1799.00,1618.00 1799.00,1610.00 1799.00,1610.00
             1799.01,1607.47 1798.68,1603.51 1800.60,1601.60
             1802.92,1599.30 1807.13,1600.50 1810.00,1600.85
             1810.00,1600.85 1832.00,1603.73 1832.00,1603.73
             1832.00,1603.73 1903.00,1613.58 1903.00,1613.58
             1907.65,1614.27 1921.41,1615.06 1924.01,1618.65
             1925.25,1620.37 1925.00,1623.92 1925.00,1626.00
             1925.00,1626.00 1925.00,1636.00 1925.00,1636.00
             1925.00,1636.00 1877.00,1627.44 1877.00,1627.44
             1877.00,1627.44 1846.00,1624.83 1846.00,1624.83
             1846.00,1624.83 1799.00,1618.00 1799.00,1618.00 Z
           M 870.00,1627.00
           C 878.58,1621.42 881.35,1621.76 891.00,1619.37
             891.00,1619.37 915.00,1614.09 915.00,1614.09
             920.06,1613.74 922.38,1614.76 927.00,1614.98
             927.00,1614.98 939.00,1614.98 939.00,1614.98
             939.00,1614.98 954.00,1616.00 954.00,1616.00
             965.81,1616.02 992.80,1618.97 1004.00,1621.92
             1004.00,1621.92 1023.00,1629.20 1023.00,1629.20
             1037.59,1635.08 1053.98,1641.15 1064.00,1654.00
             1064.00,1654.00 1046.97,1678.00 1046.97,1678.00
             1044.32,1682.83 1045.55,1687.10 1041.85,1688.12
             1039.30,1688.82 1037.00,1686.83 1035.00,1685.58
             1035.00,1685.58 1023.00,1679.25 1023.00,1679.25
             1006.76,1671.12 1009.12,1672.46 992.00,1667.58
             987.08,1666.18 982.17,1664.22 977.00,1664.42
             967.34,1664.81 957.59,1663.08 948.00,1662.08
             948.00,1662.08 932.00,1662.08 932.00,1662.08
             919.00,1662.02 900.54,1667.90 887.81,1672.00
             887.81,1672.00 887.81,1663.00 887.81,1663.00
             887.81,1663.00 870.00,1627.00 870.00,1627.00 Z
           M 1813.00,1744.00
           C 1813.00,1744.00 1833.00,1734.37 1833.00,1734.37
             1833.00,1734.37 1844.00,1732.73 1844.00,1732.73
             1849.95,1731.87 1854.92,1730.88 1861.00,1731.01
             1883.05,1731.51 1904.01,1738.72 1925.00,1744.86
             1933.00,1747.20 1937.19,1750.77 1944.00,1755.33
             1946.03,1756.70 1949.77,1758.86 1950.65,1761.18
             1951.58,1763.62 1949.49,1768.53 1948.67,1771.00
             1944.51,1783.42 1944.01,1787.09 1932.00,1794.00
             1925.23,1788.50 1921.48,1788.05 1914.00,1784.52
             1898.47,1777.18 1881.34,1771.81 1864.00,1772.00
             1858.88,1772.06 1849.10,1773.56 1844.00,1774.66
             1841.52,1775.20 1835.58,1777.14 1833.38,1776.34
             1830.98,1775.46 1828.34,1770.21 1826.95,1768.00
             1822.88,1761.49 1815.50,1750.76 1813.00,1744.00 Z
           M 1383.00,1741.00
           C 1383.00,1741.00 1400.00,1742.84 1400.00,1742.84
             1400.00,1742.84 1436.00,1746.84 1436.00,1746.84
             1436.00,1746.84 1522.00,1756.16 1522.00,1756.16
             1522.00,1756.16 1565.00,1761.00 1565.00,1761.00
             1565.00,1761.00 1565.00,1765.00 1565.00,1765.00
             1565.05,1769.19 1566.98,1776.24 1563.99,1779.43
             1561.58,1782.01 1556.10,1780.56 1553.00,1780.13
             1553.00,1780.13 1523.00,1776.13 1523.00,1776.13
             1523.00,1776.13 1421.00,1762.42 1421.00,1762.42
             1421.00,1762.42 1396.00,1760.83 1396.00,1760.83
             1394.13,1760.65 1387.88,1760.00 1386.60,1758.98
             1384.56,1757.35 1383.42,1744.20 1383.00,1741.00 Z
           M 1391.00,1875.00
           C 1401.59,1871.04 1423.20,1864.02 1434.00,1864.00
             1434.00,1864.00 1470.00,1864.00 1470.00,1864.00
             1483.13,1864.02 1496.11,1866.25 1509.00,1868.58
             1519.01,1870.38 1523.37,1870.48 1533.00,1874.58
             1533.00,1874.58 1569.00,1887.87 1569.00,1887.87
             1571.75,1889.42 1578.38,1892.96 1579.08,1896.10
             1579.72,1899.01 1574.35,1911.51 1573.05,1915.00
             1570.78,1921.09 1569.85,1925.77 1563.98,1929.50
             1558.73,1932.85 1554.20,1929.76 1549.00,1927.58
             1534.66,1921.56 1532.79,1919.76 1517.00,1916.60
             1510.20,1915.24 1501.77,1913.08 1495.00,1913.00
             1495.00,1913.00 1461.00,1913.00 1461.00,1913.00
             1451.37,1912.83 1452.05,1908.68 1446.00,1908.23
             1446.00,1908.23 1440.00,1909.08 1440.00,1909.08
             1440.00,1909.08 1432.00,1909.08 1432.00,1909.08
             1432.00,1909.08 1407.00,1917.00 1407.00,1917.00
             1407.00,1917.00 1391.00,1875.00 1391.00,1875.00 Z
           M 455.00,1905.00
           C 460.31,1906.29 462.68,1905.99 468.00,1906.00
             468.00,1906.00 480.00,1906.96 480.00,1906.96
             480.00,1906.96 489.00,1906.96 489.00,1906.96
             489.00,1906.96 506.00,1908.00 506.00,1908.00
             506.00,1908.00 522.00,1909.00 522.00,1909.00
             522.00,1909.00 543.00,1910.00 543.00,1910.00
             543.00,1910.00 557.00,1910.91 557.00,1910.91
             557.00,1910.91 582.00,1912.09 582.00,1912.09
             582.00,1912.09 590.00,1912.96 590.00,1912.96
             590.00,1912.96 627.00,1915.83 627.00,1915.83
             630.15,1916.13 641.30,1916.47 643.61,1917.57
             648.70,1920.00 651.77,1935.53 645.70,1938.20
             643.78,1939.31 630.52,1938.04 627.00,1938.20
             627.00,1938.20 617.00,1937.00 617.00,1937.00
             617.00,1937.00 607.00,1937.00 607.00,1937.00
             607.00,1937.00 592.00,1936.00 592.00,1936.00
             592.00,1936.00 582.00,1935.00 582.00,1935.00
             582.00,1935.00 572.00,1935.00 572.00,1935.00
             572.00,1935.00 558.00,1934.00 558.00,1934.00
             558.00,1934.00 548.00,1933.04 548.00,1933.04
             548.00,1933.04 540.00,1933.04 540.00,1933.04
             540.00,1933.04 523.00,1932.00 523.00,1932.00
             523.00,1932.00 506.00,1931.00 506.00,1931.00
             506.00,1931.00 491.00,1930.00 491.00,1930.00
             491.00,1930.00 475.00,1929.00 475.00,1929.00
             475.00,1929.00 449.00,1928.00 449.00,1928.00
             449.31,1921.76 452.53,1910.82 455.00,1905.00 Z
           M 865.00,1932.00
           C 865.00,1932.00 891.00,1933.90 891.00,1933.90
             891.00,1933.90 901.00,1933.90 901.00,1933.90
             901.00,1933.90 923.00,1935.91 923.00,1935.91
             923.00,1935.91 997.00,1940.91 997.00,1940.91
             997.00,1940.91 1041.00,1944.00 1041.00,1944.00
             1041.00,1944.00 1041.00,1940.00 1041.00,1940.00
             1041.00,1940.00 1055.40,1942.02 1055.40,1942.02
             1055.40,1942.02 1057.00,1949.00 1057.00,1949.00
             1057.00,1949.00 1058.00,1967.00 1058.00,1967.00
             1058.00,1967.00 1030.00,1966.00 1030.00,1966.00
             1030.00,1966.00 1011.00,1965.00 1011.00,1965.00
             1011.00,1965.00 995.00,1964.00 995.00,1964.00
             995.00,1964.00 969.00,1963.00 969.00,1963.00
             969.00,1963.00 954.00,1962.00 954.00,1962.00
             954.00,1962.00 932.00,1961.00 932.00,1961.00
             932.00,1961.00 912.00,1960.00 912.00,1960.00
             912.00,1960.00 891.00,1959.00 891.00,1959.00
             887.47,1958.99 873.03,1958.85 870.74,1957.01
             869.08,1955.67 868.76,1952.02 868.41,1950.00
             868.41,1950.00 865.00,1932.00 865.00,1932.00 Z
           M 1860.88,2022.00
           C 1860.35,2017.37 1857.05,2009.09 1860.88,2005.57
             1863.23,2003.23 1871.55,2003.98 1875.00,2004.00
             1875.00,2004.00 1889.00,2005.04 1889.00,2005.04
             1889.00,2005.04 1901.00,2005.04 1901.00,2005.04
             1901.00,2005.04 1914.00,2006.00 1914.00,2006.00
             1914.00,2006.00 1928.00,2007.00 1928.00,2007.00
             1928.00,2007.00 1952.00,2008.09 1952.00,2008.09
             1952.00,2008.09 1967.00,2009.00 1967.00,2009.00
             1967.00,2009.00 1981.00,2010.00 1981.00,2010.00
             1981.00,2010.00 2000.00,2011.00 2000.00,2011.00
             2000.00,2014.96 2000.14,2026.44 1996.69,2028.69
             1994.36,2030.19 1989.73,2030.00 1987.00,2030.00
             1987.00,2030.00 1941.00,2028.00 1941.00,2028.00
             1941.00,2028.00 1923.00,2027.00 1923.00,2027.00
             1923.00,2027.00 1907.00,2026.00 1907.00,2026.00
             1907.00,2026.00 1860.88,2022.00 1860.88,2022.00 Z
           M 895.00,2174.00
           C 895.00,2174.00 892.91,2145.00 892.91,2145.00
             892.91,2145.00 892.01,2135.00 892.01,2135.00
             891.96,2132.42 890.79,2124.33 892.01,2122.74
             893.47,2120.82 904.16,2119.37 907.00,2118.80
             907.00,2118.80 934.00,2114.04 934.00,2114.04
             934.00,2114.04 950.00,2115.00 950.00,2115.00
             950.00,2115.00 967.00,2115.00 967.00,2115.00
             975.13,2115.01 982.05,2116.56 990.00,2117.73
             990.00,2117.73 1014.00,2121.59 1014.00,2121.59
             1014.00,2121.59 1028.00,2126.66 1028.00,2126.66
             1043.03,2131.92 1044.22,2131.75 1057.00,2141.79
             1060.34,2144.42 1062.23,2145.67 1065.00,2149.00
             1065.00,2149.00 1051.19,2170.00 1051.19,2170.00
             1051.19,2170.00 1044.70,2181.00 1044.70,2181.00
             1044.70,2181.00 1043.00,2191.00 1043.00,2191.00
             1043.00,2191.00 1036.96,2187.51 1036.96,2187.51
             1036.96,2187.51 1007.00,2174.77 1007.00,2174.77
             1007.00,2174.77 981.00,2169.92 981.00,2169.92
             981.00,2169.92 950.00,2165.34 950.00,2165.34
             950.00,2165.34 935.00,2166.84 935.00,2166.84
             917.33,2168.73 912.62,2168.89 895.00,2174.00 Z
           M 1900.00,2211.00
           C 1900.00,2211.00 1886.00,2187.00 1886.00,2187.00
             1884.65,2184.75 1880.90,2179.46 1881.10,2177.00
             1881.35,2174.05 1885.72,2170.16 1888.00,2168.49
             1895.23,2163.21 1908.32,2160.18 1917.00,2158.12
             1924.41,2156.36 1927.11,2155.04 1935.00,2155.00
             1949.78,2154.93 1967.51,2156.17 1982.00,2159.00
             1986.42,2159.87 1999.67,2162.20 2003.00,2163.76
             2007.31,2165.79 2012.83,2171.25 2017.00,2174.22
             2017.00,2174.22 2031.00,2183.00 2031.00,2183.00
             2031.00,2183.00 2023.58,2204.00 2023.58,2204.00
             2021.91,2208.45 2021.51,2211.35 2016.95,2213.56
             2007.79,2218.00 2001.61,2212.66 1993.00,2208.86
             1982.00,2204.00 1970.16,2200.02 1958.00,2200.00
             1951.41,2199.99 1927.22,2200.55 1922.00,2201.92
             1922.00,2201.92 1900.00,2211.00 1900.00,2211.00 Z
           M 1614.00,2215.00
           C 1614.74,2219.11 1615.97,2232.17 1612.40,2234.98
             1610.80,2236.24 1607.00,2236.00 1605.00,2236.00
             1605.00,2236.00 1558.00,2236.00 1558.00,2236.00
             1558.00,2236.00 1541.00,2235.00 1541.00,2235.00
             1541.00,2235.00 1457.00,2235.00 1457.00,2235.00
             1457.00,2235.00 1429.00,2235.00 1429.00,2235.00
             1425.43,2234.95 1421.49,2234.91 1418.63,2232.47
             1413.78,2228.32 1413.91,2222.81 1414.00,2217.00
             1414.08,2212.16 1415.61,2208.72 1420.96,2207.79
             1425.12,2207.06 1423.38,2209.98 1434.00,2210.00
             1434.00,2210.00 1450.00,2210.00 1450.00,2210.00
             1450.00,2210.00 1466.00,2211.00 1466.00,2211.00
             1466.00,2211.00 1485.00,2211.00 1485.00,2211.00
             1485.00,2211.00 1500.00,2212.00 1500.00,2212.00
             1500.00,2212.00 1518.00,2212.00 1518.00,2212.00
             1518.00,2212.00 1534.00,2213.00 1534.00,2213.00
             1534.00,2213.00 1551.00,2213.00 1551.00,2213.00
             1551.00,2213.00 1567.00,2214.00 1567.00,2214.00
             1567.00,2214.00 1596.00,2214.00 1596.00,2214.00
             1596.00,2214.00 1614.00,2215.00 1614.00,2215.00 Z
           M 1639.00,2622.00
           C 1639.00,2622.00 1685.00,2622.00 1685.00,2622.00
             1685.00,2622.00 1702.00,2623.00 1702.00,2623.00
             1702.00,2623.00 1812.00,2623.00 1812.00,2623.00
             1812.00,2623.00 1827.00,2624.00 1827.00,2624.00
             1827.00,2624.00 1876.00,2624.00 1876.00,2624.00
             1876.00,2624.00 1868.27,2681.00 1868.27,2681.00
             1868.27,2681.00 1856.00,2766.00 1856.00,2766.00
             1856.00,2766.00 1836.00,2767.83 1836.00,2767.83
             1836.00,2767.83 1803.00,2770.83 1803.00,2770.83
             1803.00,2770.83 1736.00,2776.83 1736.00,2776.83
             1736.00,2776.83 1718.00,2778.28 1718.00,2778.28
             1718.00,2778.28 1685.00,2780.82 1685.00,2780.82
             1685.00,2780.82 1670.00,2776.86 1670.00,2776.86
             1664.67,2775.35 1656.20,2772.47 1652.31,2768.47
             1649.39,2765.47 1650.17,2761.81 1649.72,2758.00
             1649.72,2758.00 1647.72,2733.00 1647.72,2733.00
             1647.72,2733.00 1642.83,2671.00 1642.83,2671.00
             1642.83,2671.00 1639.91,2634.00 1639.91,2634.00
             1639.91,2634.00 1639.00,2622.00 1639.00,2622.00 Z
           M 78.00,2709.00
           C 78.00,2709.00 121.00,2707.00 121.00,2707.00
             121.00,2707.00 138.00,2706.00 138.00,2706.00
             138.00,2706.00 154.00,2705.00 154.00,2705.00
             154.00,2705.00 195.00,2703.00 195.00,2703.00
             195.00,2703.00 205.00,2702.00 205.00,2702.00
             205.00,2702.00 217.00,2702.00 217.00,2702.00
             217.00,2702.00 230.00,2701.00 230.00,2701.00
             230.00,2701.00 246.00,2700.00 246.00,2700.00
             246.00,2700.00 266.00,2699.00 266.00,2699.00
             266.00,2699.00 284.00,2698.00 284.00,2698.00
             284.00,2698.00 325.00,2696.00 325.00,2696.00
             325.00,2696.00 341.00,2695.00 341.00,2695.00
             341.00,2695.00 353.00,2694.00 353.00,2694.00
             353.00,2694.00 365.00,2694.00 365.00,2694.00
             365.00,2694.00 378.00,2693.00 378.00,2693.00
             378.00,2693.00 393.00,2692.00 393.00,2692.00
             393.00,2692.00 417.00,2691.00 417.00,2691.00
             417.00,2691.00 432.00,2690.00 432.00,2690.00
             432.00,2690.00 449.00,2689.00 449.00,2689.00
             449.00,2689.00 473.00,2688.00 473.00,2688.00
             473.00,2688.00 486.00,2687.00 486.00,2687.00
             486.00,2687.00 510.00,2686.00 510.00,2686.00
             510.00,2686.00 527.00,2685.00 527.00,2685.00
             527.00,2685.00 543.00,2684.00 543.00,2684.00
             543.00,2684.00 584.00,2682.00 584.00,2682.00
             584.00,2682.00 601.00,2681.00 601.00,2681.00
             601.00,2681.00 617.00,2680.00 617.00,2680.00
             617.00,2680.00 657.00,2678.00 657.00,2678.00
             657.00,2678.00 673.00,2677.00 673.00,2677.00
             673.00,2677.00 714.00,2675.00 714.00,2675.00
             714.00,2675.00 724.00,2674.04 724.00,2674.04
             724.00,2674.04 732.00,2674.04 732.00,2674.04
             732.00,2674.04 750.00,2673.00 750.00,2673.00
             750.00,2673.00 769.00,2672.00 769.00,2672.00
             769.00,2672.00 786.00,2671.00 786.00,2671.00
             786.00,2671.00 802.00,2670.00 802.00,2670.00
             802.00,2670.00 843.00,2668.00 843.00,2668.00
             843.00,2668.00 857.00,2667.00 857.00,2667.00
             857.00,2667.00 899.00,2665.00 899.00,2665.00
             899.00,2665.00 913.00,2664.00 913.00,2664.00
             913.00,2664.00 954.00,2662.00 954.00,2662.00
             954.00,2662.00 971.00,2661.00 971.00,2661.00
             971.00,2661.00 987.00,2660.00 987.00,2660.00
             987.00,2660.00 1028.00,2658.00 1028.00,2658.00
             1028.00,2658.00 1047.00,2657.00 1047.00,2657.00
             1047.00,2657.00 1064.00,2656.00 1064.00,2656.00
             1064.00,2656.00 1079.00,2655.00 1079.00,2655.00
             1079.00,2655.00 1120.00,2653.00 1120.00,2653.00
             1120.00,2653.00 1138.00,2652.00 1138.00,2652.00
             1138.00,2652.00 1154.00,2651.00 1154.00,2651.00
             1154.00,2651.00 1195.00,2649.00 1195.00,2649.00
             1195.00,2649.00 1205.00,2648.00 1205.00,2648.00
             1205.00,2648.00 1216.00,2648.00 1216.00,2648.00
             1216.00,2648.00 1231.00,2647.00 1231.00,2647.00
             1231.00,2647.00 1246.00,2646.00 1246.00,2646.00
             1246.00,2646.00 1287.00,2644.00 1287.00,2644.00
             1287.00,2644.00 1297.00,2643.04 1297.00,2643.04
             1297.00,2643.04 1306.00,2643.04 1306.00,2643.04
             1306.00,2643.04 1324.00,2642.00 1324.00,2642.00
             1324.00,2642.00 1334.00,2641.04 1334.00,2641.04
             1334.00,2641.04 1343.00,2641.04 1343.00,2641.04
             1343.00,2641.04 1361.00,2640.00 1361.00,2640.00
             1361.00,2640.00 1376.00,2639.00 1376.00,2639.00
             1376.00,2639.00 1393.00,2638.00 1393.00,2638.00
             1393.00,2638.00 1424.00,2637.00 1424.00,2637.00
             1424.00,2651.00 1424.40,2645.15 1426.99,2657.00
             1426.99,2657.00 1430.91,2682.00 1430.91,2682.00
             1430.91,2682.00 1432.00,2705.00 1432.00,2705.00
             1432.00,2705.00 1433.00,2718.00 1433.00,2718.00
             1433.00,2718.00 1435.00,2755.00 1435.00,2755.00
             1435.06,2760.20 1436.64,2765.86 1435.86,2770.96
             1435.16,2775.46 1432.58,2775.72 1432.23,2780.01
             1432.23,2780.01 1435.00,2805.00 1435.00,2805.00
             1435.00,2805.00 1400.00,2807.91 1400.00,2807.91
             1400.00,2807.91 1338.00,2812.83 1338.00,2812.83
             1338.00,2812.83 1305.00,2815.09 1305.00,2815.09
             1305.00,2815.09 1273.00,2817.91 1273.00,2817.91
             1273.00,2817.91 1211.00,2822.83 1211.00,2822.83
             1211.00,2822.83 1191.00,2824.09 1191.00,2824.09
             1191.00,2824.09 1153.00,2827.09 1153.00,2827.09
             1153.00,2827.09 1072.00,2833.29 1072.00,2833.29
             1072.00,2833.29 1062.00,2833.29 1062.00,2833.29
             1062.00,2833.29 1043.00,2834.83 1043.00,2834.83
             1043.00,2834.83 1023.00,2836.09 1023.00,2836.09
             1023.00,2836.09 990.00,2838.91 990.00,2838.91
             990.00,2838.91 816.00,2852.09 816.00,2852.09
             816.00,2852.09 757.00,2857.00 757.00,2857.00
             757.00,2857.00 739.00,2857.00 739.00,2857.00
             739.00,2857.00 665.00,2862.91 665.00,2862.91
             665.00,2862.91 389.00,2883.09 389.00,2883.09
             389.00,2883.09 302.00,2889.91 302.00,2889.91
             302.00,2889.91 174.00,2899.09 174.00,2899.09
             174.00,2899.09 141.00,2901.91 141.00,2901.91
             141.00,2901.91 87.00,2905.91 87.00,2905.91
             87.00,2905.91 61.00,2908.00 61.00,2908.00
             61.00,2908.00 65.17,2859.00 65.17,2859.00
             65.17,2859.00 73.83,2758.00 73.83,2758.00
             73.83,2758.00 78.00,2709.00 78.00,2709.00 Z">
        <title>Auswahl</title>
  </path>
</svg>
