<?xml version="1.0" encoding="UTF-8" standalone="no"?>
<svg xmlns="http://www.w3.org/2000/svg"
     xmlns:svg="http://www.w3.org/2000/svg"
     version="1.1"
     width="31.25in" height="55.5556in"
     viewBox="0 0 2250 4000">
  <path id="path1"
        fill="white" stroke="black" stroke-width="1"
        d="M 375.00,626.00
           C 375.00,626.00 395.00,631.12 395.00,631.12
             395.00,631.12 443.00,643.85 443.00,643.85
             443.00,643.85 568.00,676.88 568.00,676.88
             568.00,676.88 621.00,691.00 621.00,691.00
             620.40,694.21 619.73,697.99 618.52,701.00
             615.50,708.58 613.52,707.13 616.00,716.00
             613.51,717.40 609.43,719.50 608.19,722.18
             607.31,724.09 608.01,726.20 607.51,729.00
             606.98,732.01 603.27,742.33 609.45,742.46
             610.33,742.47 613.03,741.35 614.00,741.00
             615.13,742.93 617.93,746.88 614.67,748.36
             612.32,749.43 604.71,747.04 602.00,746.37
             602.00,746.37 570.00,738.63 570.00,738.63
             570.00,738.63 500.00,721.79 500.00,721.79
             494.13,720.52 481.22,715.43 476.43,719.70
             474.02,721.85 474.36,724.37 473.28,726.83
             472.09,729.56 469.97,730.88 469.35,734.01
             469.35,734.01 470.91,751.00 470.91,751.00
             469.50,775.86 458.55,827.27 454.27,855.00
             454.27,855.00 449.00,887.00 449.00,887.00
             448.01,892.15 448.83,896.00 443.00,897.00
             444.19,900.60 444.46,900.69 448.00,902.00
             448.00,902.00 447.00,911.00 447.00,911.00
             447.00,911.00 455.40,913.58 455.40,913.58
             455.40,913.58 459.41,932.00 459.41,932.00
             459.41,932.00 464.00,968.00 464.00,968.00
             464.00,968.00 462.16,991.98 462.16,991.98
             462.16,991.98 468.85,1002.05 468.85,1002.05
             468.85,1002.05 470.00,1023.00 470.00,1023.00
             470.00,1023.00 472.00,1055.00 472.00,1055.00
             472.00,1055.00 473.00,1075.00 473.00,1075.00
             473.00,1075.00 474.00,1090.00 474.00,1090.00
             474.00,1090.00 476.00,1130.00 476.00,1130.00
             476.00,1130.00 478.00,1156.00 478.00,1156.00
             478.00,1156.00 462.00,1153.00 462.00,1153.00
             462.00,1153.00 458.00,1196.00 458.00,1196.00
             458.00,1196.00 496.00,1201.87 496.00,1201.87
             498.79,1202.26 507.47,1204.14 509.57,1202.89
             512.40,1201.21 511.93,1195.92 512.28,1193.00
             512.28,1193.00 515.00,1164.00 515.00,1164.00
             515.00,1164.00 500.00,1160.00 500.00,1160.00
             500.00,1160.00 501.83,1140.00 501.83,1140.00
             501.83,1140.00 504.17,1111.00 504.17,1111.00
             504.17,1111.00 506.00,1089.00 506.00,1089.00
             506.00,1089.00 571.00,1101.39 571.00,1101.39
             571.00,1101.39 724.00,1131.00 724.00,1131.00
             724.00,1131.00 723.09,1141.00 723.09,1141.00
             723.09,1141.00 720.09,1179.00 720.09,1179.00
             720.09,1179.00 713.17,1267.00 713.17,1267.00
             713.17,1267.00 709.91,1312.00 709.91,1312.00
             709.91,1312.00 704.09,1382.00 704.09,1382.00
             704.09,1382.00 698.17,1458.00 698.17,1458.00
             698.17,1458.00 695.83,1491.00 695.83,1491.00
             695.83,1491.00 690.09,1560.00 690.09,1560.00
             690.09,1560.00 687.42,1595.00 687.42,1595.00
             687.42,1595.00 686.00,1607.00 686.00,1607.00
             683.22,1601.75 678.14,1600.32 673.00,1597.75
             673.00,1597.75 638.00,1582.68 638.00,1582.68
             620.69,1576.28 615.67,1575.65 598.00,1572.00
             589.21,1570.18 583.17,1568.01 574.00,1568.00
             574.00,1568.00 546.00,1567.00 546.00,1567.00
             546.00,1567.00 523.00,1568.91 523.00,1568.91
             523.00,1568.91 493.00,1571.46 493.00,1571.46
             483.88,1573.11 478.90,1577.91 470.00,1580.00
             470.00,1580.00 482.34,1599.00 482.34,1599.00
             484.87,1602.86 488.63,1607.62 489.81,1612.00
             492.63,1622.44 489.91,1631.74 489.08,1642.00
             489.08,1642.00 482.16,1706.00 482.16,1706.00
             482.16,1706.00 468.83,1831.00 468.83,1831.00
             468.83,1831.00 461.00,1902.00 461.00,1902.00
             461.00,1902.00 487.00,1904.17 487.00,1904.17
             487.00,1904.17 553.00,1909.83 553.00,1909.83
             553.00,1909.83 586.00,1913.00 586.00,1913.00
             586.00,1913.00 566.00,1912.00 566.00,1912.00
             566.00,1912.00 523.00,1910.00 523.00,1910.00
             523.00,1910.00 506.00,1909.00 506.00,1909.00
             506.00,1909.00 488.00,1908.00 488.00,1908.00
             488.00,1908.00 475.00,1907.04 475.00,1907.04
             475.00,1907.04 466.00,1907.04 466.00,1907.04
             466.00,1907.04 455.00,1906.00 455.00,1906.00
             455.00,1906.00 449.00,1927.00 449.00,1927.00
             449.00,1927.00 508.00,1930.00 508.00,1930.00
             508.00,1930.00 518.00,1930.96 518.00,1930.96
             518.00,1930.96 526.00,1930.96 526.00,1930.96
             526.00,1930.96 543.00,1932.00 543.00,1932.00
             543.00,1932.00 560.00,1933.00 560.00,1933.00
             560.00,1933.00 575.00,1934.00 575.00,1934.00
             575.00,1934.00 613.00,1936.00 613.00,1936.00
             613.00,1936.00 623.00,1937.00 623.00,1937.00
             623.00,1937.00 633.00,1937.00 633.00,1937.00
             633.00,1937.00 647.00,1938.00 647.00,1938.00
             648.70,1925.71 647.97,1928.90 644.00,1917.00
             644.00,1917.00 650.00,1918.00 650.00,1918.00
             650.00,1918.00 653.00,1863.00 653.00,1863.00
             653.00,1863.00 653.91,1853.00 653.91,1853.00
             653.91,1853.00 655.09,1828.00 655.09,1828.00
             655.09,1828.00 656.00,1814.00 656.00,1814.00
             656.00,1814.00 657.91,1788.00 657.91,1788.00
             657.91,1788.00 659.09,1763.00 659.09,1763.00
             659.09,1763.00 660.00,1753.00 660.00,1753.00
             660.00,1753.00 663.00,1700.00 663.00,1700.00
             663.00,1700.00 664.00,1690.00 664.00,1690.00
             664.00,1690.00 664.00,1681.00 664.00,1681.00
             664.00,1681.00 665.81,1659.00 665.81,1659.00
             666.22,1652.16 662.46,1649.55 666.68,1639.00
             668.31,1634.93 682.47,1616.56 686.00,1613.00
             686.00,1613.00 684.17,1635.00 684.17,1635.00
             684.17,1635.00 681.17,1673.00 681.17,1673.00
             681.17,1673.00 679.91,1693.00 679.91,1693.00
             679.91,1693.00 678.09,1712.00 678.09,1712.00
             678.09,1712.00 674.17,1762.00 674.17,1762.00
             674.17,1762.00 669.17,1826.00 669.17,1826.00
             669.17,1826.00 667.00,1850.00 667.00,1850.00
             667.00,1850.00 672.00,1852.00 672.00,1852.00
             672.00,1852.00 673.83,1830.00 673.83,1830.00
             673.83,1830.00 675.83,1805.00 675.83,1805.00
             675.83,1805.00 679.17,1760.00 679.17,1760.00
             679.17,1760.00 683.91,1705.00 683.91,1705.00
             683.91,1705.00 691.83,1607.00 691.83,1607.00
             691.83,1607.00 699.17,1512.00 699.17,1512.00
             699.17,1512.00 704.17,1450.00 704.17,1450.00
             704.17,1450.00 713.09,1338.00 713.09,1338.00
             713.09,1338.00 718.83,1272.00 718.83,1272.00
             718.83,1272.00 724.17,1202.00 724.17,1202.00
             724.17,1202.00 728.09,1154.00 728.09,1154.00
             728.09,1154.00 729.00,1132.00 729.00,1132.00
             729.00,1132.00 813.00,1149.00 813.00,1149.00
             813.00,1149.00 996.00,1186.20 996.00,1186.20
             996.00,1186.20 1057.00,1198.58 1057.00,1198.58
             1060.53,1199.35 1074.20,1201.26 1075.98,1203.58
             1077.24,1205.23 1077.00,1208.96 1077.00,1211.00
             1077.00,1211.00 1077.00,1269.82 1077.00,1269.82
             1073.90,1269.58 1066.92,1267.48 1064.60,1269.82
             1062.68,1271.42 1063.00,1275.57 1063.00,1278.00
             1063.00,1278.00 1062.09,1295.00 1062.09,1295.00
             1061.94,1297.36 1061.84,1300.59 1063.60,1302.42
             1065.46,1304.35 1072.20,1305.24 1075.00,1305.80
             1075.00,1305.80 1104.00,1311.00 1104.00,1311.00
             1104.00,1311.00 1104.96,1298.00 1104.96,1298.00
             1104.96,1298.00 1104.96,1287.00 1104.96,1287.00
             1104.96,1287.00 1106.00,1275.00 1106.00,1275.00
             1106.00,1275.00 1095.20,1271.28 1095.20,1271.28
             1095.20,1271.28 1095.20,1262.00 1095.20,1262.00
             1095.20,1262.00 1099.42,1240.00 1099.42,1240.00
             1099.42,1240.00 1111.80,1174.00 1111.80,1174.00
             1111.80,1174.00 1119.00,1135.00 1119.00,1135.00
             1119.00,1135.00 1126.00,1135.00 1126.00,1135.00
             1126.00,1135.00 1126.00,1120.00 1126.00,1120.00
             1126.02,1107.40 1136.05,1078.53 1140.00,1065.00
             1140.00,1065.00 1149.00,1066.00 1149.00,1066.00
             1149.00,1066.00 1148.00,1048.00 1148.00,1048.00
             1148.00,1048.00 1148.00,1006.00 1148.00,1006.00
             1148.00,1006.00 1147.00,989.00 1147.00,989.00
             1147.00,989.00 1147.00,946.00 1147.00,946.00
             1147.00,946.00 1146.00,930.00 1146.00,930.00
             1146.00,930.00 1146.00,921.00 1146.00,921.00
             1146.14,909.65 1155.46,895.91 1143.82,886.51
             1140.11,883.52 1124.42,880.23 1119.00,878.71
             1119.00,878.71 1058.00,862.42 1058.00,862.42
             1058.00,862.42 1033.31,855.58 1033.31,855.58
             1030.03,853.43 1031.66,848.31 1032.13,845.00
             1032.13,845.00 1036.42,820.00 1036.42,820.00
             1036.96,817.55 1037.93,812.43 1039.72,810.74
             1043.08,807.58 1054.74,811.81 1059.00,812.87
             1059.00,812.87 1114.00,827.00 1114.00,827.00
             1114.00,827.00 1188.00,845.87 1188.00,845.87
             1188.00,845.87 1266.00,865.87 1266.00,865.87
             1266.00,865.87 1309.00,876.87 1309.00,876.87
             1315.23,878.43 1324.92,881.93 1331.00,881.00
             1334.19,890.85 1334.39,899.86 1335.09,910.00
             1335.09,910.00 1336.00,925.00 1336.00,925.00
             1336.00,925.00 1337.00,939.00 1337.00,939.00
             1337.00,939.00 1338.00,958.00 1338.00,958.00
             1338.00,958.00 1339.00,974.00 1339.00,974.00
             1339.00,974.00 1341.00,1007.00 1341.00,1007.00
             1339.65,1007.76 1338.97,1007.80 1338.27,1009.29
             1336.18,1012.20 1335.71,1021.73 1338.27,1024.27
             1340.32,1025.90 1344.57,1026.54 1347.00,1027.13
             1347.00,1027.13 1365.00,1031.63 1365.00,1031.63
             1365.00,1031.63 1412.00,1042.88 1412.00,1042.88
             1412.00,1042.88 1439.00,1049.58 1439.00,1049.58
             1439.00,1049.58 1489.00,1062.00 1489.00,1062.00
             1490.38,1056.33 1491.68,1046.53 1485.94,1042.93
             1481.66,1040.24 1471.85,1041.13 1470.31,1035.87
             1470.31,1035.87 1468.91,1020.00 1468.91,1020.00
             1468.91,1020.00 1466.91,996.00 1466.91,996.00
             1466.91,996.00 1462.91,949.00 1462.91,949.00
             1462.91,949.00 1461.62,930.00 1461.62,930.00
             1462.28,925.90 1470.26,909.44 1473.00,906.00
             1473.00,906.00 1471.00,913.00 1471.00,913.00
             1471.00,913.00 1516.00,925.15 1516.00,925.15
             1516.00,925.15 1596.00,946.88 1596.00,946.88
             1596.00,946.88 1633.00,956.88 1633.00,956.88
             1633.00,956.88 1649.96,961.17 1649.96,961.17
             1654.64,960.95 1656.84,952.70 1658.42,949.00
             1658.42,949.00 1670.41,920.00 1670.41,920.00
             1670.41,920.00 1672.42,908.00 1672.42,908.00
             1672.71,906.24 1673.09,903.70 1674.01,902.19
             1675.88,899.11 1681.32,896.75 1684.49,899.02
             1687.95,901.51 1685.34,913.19 1684.49,917.00
             1684.49,917.00 1665.00,967.00 1665.00,967.00
             1665.00,967.00 1719.00,980.63 1719.00,980.63
             1719.00,980.63 1787.00,998.12 1787.00,998.12
             1787.00,998.12 1818.00,1006.00 1818.00,1006.00
             1818.00,1006.00 1855.00,1015.58 1855.00,1015.58
             1855.00,1015.58 1869.15,1020.51 1869.15,1020.51
             1869.15,1020.51 1871.80,1029.00 1871.80,1029.00
             1871.80,1029.00 1875.08,1047.00 1875.08,1047.00
             1875.08,1047.00 1887.20,1111.00 1887.20,1111.00
             1887.20,1111.00 1921.40,1280.00 1921.40,1280.00
             1921.40,1280.00 1935.42,1351.00 1935.42,1351.00
             1935.42,1351.00 1944.00,1393.00 1944.00,1393.00
             1944.00,1393.00 1955.39,1452.00 1955.39,1452.00
             1955.39,1452.00 2056.61,1970.00 2056.61,1970.00
             2056.61,1970.00 2091.42,2156.00 2091.42,2156.00
             2091.42,2156.00 2100.37,2199.00 2100.37,2199.00
             2100.37,2199.00 2107.00,2227.00 2107.00,2227.00
             2103.04,2227.95 2092.30,2236.04 2089.00,2239.00
             2095.81,2241.97 2084.08,2244.26 2082.00,2244.41
             2082.00,2244.41 2072.00,2245.30 2072.00,2245.30
             2072.00,2245.30 2067.00,2244.37 2067.00,2244.37
             2059.95,2243.14 2058.25,2244.41 2052.00,2246.15
             2048.28,2247.19 2046.48,2245.71 2044.00,2249.00
             2044.00,2249.00 2024.04,2251.01 2024.04,2251.01
             2024.04,2251.01 2018.00,2254.00 2018.00,2254.00
             2020.15,2256.97 2022.44,2259.90 2026.00,2261.26
             2030.12,2262.84 2046.42,2262.25 2050.00,2272.00
             2050.00,2272.00 2039.00,2276.43 2039.00,2276.43
             2039.00,2276.43 2015.00,2270.00 2015.00,2270.00
             2015.00,2270.00 2008.00,2215.00 2008.00,2215.00
             2021.94,2212.81 2021.87,2205.85 2026.00,2194.00
             2026.89,2191.45 2029.59,2186.29 2028.12,2183.90
             2026.86,2181.83 2021.22,2178.59 2019.00,2177.19
             2019.00,2177.19 2006.00,2167.44 2006.00,2167.44
             1999.63,2162.71 1992.59,2162.12 1985.00,2160.60
             1968.89,2157.38 1952.41,2155.92 1936.00,2156.00
             1923.46,2156.06 1905.49,2161.59 1894.00,2166.62
             1889.87,2168.43 1881.64,2173.69 1883.10,2179.00
             1883.10,2179.00 1900.14,2209.00 1900.14,2209.00
             1900.14,2209.00 1901.41,2219.00 1901.41,2219.00
             1901.41,2219.00 1905.42,2243.00 1905.42,2243.00
             1905.42,2243.00 1912.25,2282.00 1912.25,2282.00
             1913.96,2291.84 1916.07,2298.87 1915.32,2309.00
             1915.32,2309.00 1917.83,2334.00 1917.83,2334.00
             1917.83,2334.00 1915.27,2352.00 1915.27,2352.00
             1915.27,2352.00 1910.27,2387.00 1910.27,2387.00
             1910.27,2387.00 1893.00,2508.00 1893.00,2508.00
             1893.00,2508.00 1880.13,2598.00 1880.13,2598.00
             1880.13,2598.00 1877.42,2617.00 1877.42,2617.00
             1877.11,2619.05 1876.96,2622.64 1875.26,2624.01
             1873.71,2625.26 1869.95,2625.00 1868.00,2625.00
             1868.00,2625.00 1850.00,2625.00 1850.00,2625.00
             1850.00,2625.00 1834.00,2623.90 1834.00,2623.90
             1834.00,2623.90 1746.00,2623.90 1746.00,2623.90
             1746.00,2623.90 1726.00,2623.90 1726.00,2623.90
             1726.00,2623.90 1714.09,2623.90 1714.09,2623.90
             1714.09,2623.90 1702.00,2623.00 1702.00,2623.00
             1702.00,2623.00 1639.00,2623.00 1639.00,2623.00
             1639.00,2623.00 1628.91,2496.00 1628.91,2496.00
             1628.91,2496.00 1627.17,2478.00 1627.17,2478.00
             1627.17,2478.00 1625.83,2458.00 1625.83,2458.00
             1625.83,2458.00 1624.00,2433.00 1624.00,2433.00
             1624.00,2433.00 1498.00,2433.00 1498.00,2433.00
             1498.00,2433.00 1461.00,2433.00 1461.00,2433.00
             1461.00,2433.00 1443.00,2432.00 1443.00,2432.00
             1443.00,2432.00 1547.00,2432.00 1547.00,2432.00
             1547.00,2432.00 1562.00,2431.00 1562.00,2431.00
             1562.00,2431.00 1616.00,2431.00 1616.00,2431.00
             1616.00,2431.00 1634.00,2431.91 1634.00,2431.91
             1634.00,2431.91 1646.00,2430.13 1646.00,2430.13
             1646.00,2430.13 1686.00,2424.13 1686.00,2424.13
             1686.00,2424.13 1725.00,2418.15 1725.00,2418.15
             1725.00,2418.15 1761.00,2412.00 1761.00,2412.00
             1755.68,2409.75 1747.22,2403.45 1742.00,2400.00
             1742.00,2400.00 1698.00,2371.18 1698.00,2371.18
             1698.00,2371.18 1653.00,2356.57 1653.00,2356.57
             1653.00,2356.57 1616.00,2344.66 1616.00,2344.66
             1605.96,2341.45 1601.92,2339.02 1591.00,2339.00
             1591.00,2339.00 1570.00,2340.00 1570.00,2340.00
             1570.00,2340.00 1494.00,2342.00 1494.00,2342.00
             1489.33,2342.01 1484.58,2342.34 1480.00,2343.36
             1480.00,2343.36 1433.00,2361.42 1433.00,2361.42
             1426.75,2363.80 1416.31,2369.31 1410.00,2369.00
             1410.00,2369.00 1414.00,2372.00 1414.00,2372.00
             1411.61,2378.99 1408.03,2374.73 1403.00,2376.26
             1399.85,2377.23 1395.53,2380.86 1393.00,2383.00
             1393.00,2383.00 1397.00,2383.00 1397.00,2383.00
             1397.00,2383.00 1395.00,2388.00 1395.00,2388.00
             1395.00,2388.00 1398.00,2387.00 1398.00,2387.00
             1395.38,2390.55 1387.95,2394.08 1384.00,2396.74
             1384.00,2396.74 1353.00,2417.16 1353.00,2417.16
             1348.43,2419.78 1344.87,2419.23 1342.32,2421.56
             1337.96,2425.55 1341.26,2433.78 1346.02,2435.83
             1349.61,2437.53 1357.05,2436.44 1361.00,2435.83
             1361.00,2435.83 1367.00,2434.26 1367.00,2434.26
             1367.00,2434.26 1380.00,2435.00 1380.00,2435.00
             1378.90,2439.69 1375.74,2446.52 1375.84,2451.00
             1375.92,2454.86 1378.39,2458.07 1378.15,2462.00
             1377.87,2466.51 1373.87,2471.36 1373.40,2473.58
             1372.32,2478.62 1378.63,2483.82 1381.79,2486.74
             1386.75,2491.32 1385.87,2495.39 1393.96,2495.99
             1395.78,2496.12 1397.63,2496.21 1399.23,2495.16
             1403.02,2492.68 1402.48,2489.58 1403.29,2486.00
             1403.29,2486.00 1405.54,2479.00 1405.54,2479.00
             1406.20,2473.03 1401.63,2468.12 1412.00,2464.00
             1414.47,2473.79 1414.58,2489.51 1415.04,2500.00
             1415.04,2500.00 1417.00,2530.00 1417.00,2530.00
             1417.00,2530.00 1417.91,2541.00 1417.91,2541.00
             1417.91,2541.00 1419.00,2564.00 1419.00,2564.00
             1419.00,2564.00 1419.91,2574.00 1419.91,2574.00
             1419.91,2574.00 1421.09,2599.00 1421.09,2599.00
             1421.09,2599.00 1422.00,2613.00 1422.00,2613.00
             1422.00,2613.00 1424.00,2637.00 1424.00,2637.00
             1424.00,2637.00 1407.00,2638.09 1407.00,2638.09
             1407.00,2638.09 1396.00,2639.00 1396.00,2639.00
             1396.00,2639.00 1376.00,2640.00 1376.00,2640.00
             1376.00,2640.00 1360.00,2641.00 1360.00,2641.00
             1360.00,2641.00 1336.00,2642.00 1336.00,2642.00
             1336.00,2642.00 1322.00,2643.00 1322.00,2643.00
             1322.00,2643.00 1298.00,2644.00 1298.00,2644.00
             1298.00,2644.00 1285.00,2645.00 1285.00,2645.00
             1285.00,2645.00 1265.00,2646.00 1265.00,2646.00
             1265.00,2646.00 1249.00,2647.00 1249.00,2647.00
             1249.00,2647.00 1226.00,2648.00 1226.00,2648.00
             1226.00,2648.00 1216.00,2648.96 1216.00,2648.96
             1216.00,2648.96 1206.00,2648.96 1206.00,2648.96
             1206.00,2648.96 1188.00,2650.00 1188.00,2650.00
             1188.00,2650.00 1173.00,2651.00 1173.00,2651.00
             1173.00,2651.00 1154.00,2652.00 1154.00,2652.00
             1154.00,2652.00 1138.00,2653.00 1138.00,2653.00
             1138.00,2653.00 1114.00,2654.00 1114.00,2654.00
             1114.00,2654.00 1095.00,2655.00 1095.00,2655.00
             1095.00,2655.00 1078.00,2656.00 1078.00,2656.00
             1078.00,2656.00 1063.00,2657.00 1063.00,2657.00
             1063.00,2657.00 1022.00,2659.00 1022.00,2659.00
             1022.00,2659.00 1012.00,2659.96 1012.00,2659.96
             1012.00,2659.96 1003.00,2659.96 1003.00,2659.96
             1003.00,2659.96 986.00,2661.00 986.00,2661.00
             986.00,2661.00 971.00,2662.00 971.00,2662.00
             971.00,2662.00 953.00,2663.00 953.00,2663.00
             953.00,2663.00 909.00,2665.00 909.00,2665.00
             909.00,2665.00 899.00,2665.96 899.00,2665.96
             899.00,2665.96 891.00,2665.96 891.00,2665.96
             891.00,2665.96 873.00,2667.00 873.00,2667.00
             873.00,2667.00 856.00,2668.00 856.00,2668.00
             856.00,2668.00 840.00,2669.00 840.00,2669.00
             840.00,2669.00 799.00,2671.00 799.00,2671.00
             799.00,2671.00 789.00,2671.96 789.00,2671.96
             789.00,2671.96 780.00,2671.96 780.00,2671.96
             780.00,2671.96 762.00,2673.00 762.00,2673.00
             762.00,2673.00 752.00,2673.96 752.00,2673.96
             752.00,2673.96 743.00,2673.96 743.00,2673.96
             743.00,2673.96 725.00,2675.00 725.00,2675.00
             725.00,2675.00 706.00,2676.00 706.00,2676.00
             706.00,2676.00 689.00,2677.00 689.00,2677.00
             689.00,2677.00 673.00,2678.00 673.00,2678.00
             673.00,2678.00 632.00,2680.00 632.00,2680.00
             632.00,2680.00 622.00,2680.96 622.00,2680.96
             622.00,2680.96 614.00,2680.96 614.00,2680.96
             614.00,2680.96 595.00,2682.00 595.00,2682.00
             595.00,2682.00 578.00,2683.00 578.00,2683.00
             578.00,2683.00 562.00,2684.00 562.00,2684.00
             562.00,2684.00 545.00,2685.00 545.00,2685.00
             545.00,2685.00 520.00,2686.00 520.00,2686.00
             520.00,2686.00 510.00,2687.00 510.00,2687.00
             510.00,2687.00 500.00,2687.00 500.00,2687.00
             500.00,2687.00 485.00,2688.00 485.00,2688.00
             485.00,2688.00 470.00,2689.00 470.00,2689.00
             470.00,2689.00 429.00,2691.00 429.00,2691.00
             429.00,2691.00 419.00,2691.96 419.00,2691.96
             419.00,2691.96 410.00,2691.96 410.00,2691.96
             410.00,2691.96 391.00,2693.00 391.00,2693.00
             391.00,2693.00 381.00,2693.96 381.00,2693.96
             381.00,2693.96 373.00,2693.96 373.00,2693.96
             373.00,2693.96 355.00,2695.00 355.00,2695.00
             355.00,2695.00 336.00,2696.00 336.00,2696.00
             336.00,2696.00 304.00,2698.00 304.00,2698.00
             304.00,2698.00 262.00,2700.00 262.00,2700.00
             262.00,2700.00 231.00,2702.00 231.00,2702.00
             231.00,2702.00 207.00,2703.00 207.00,2703.00
             207.00,2703.00 192.00,2704.00 192.00,2704.00
             192.00,2704.00 175.00,2705.00 175.00,2705.00
             175.00,2705.00 150.00,2706.00 150.00,2706.00
             150.00,2706.00 118.00,2708.00 118.00,2708.00
             118.00,2708.00 104.00,2708.91 104.00,2708.91
             104.00,2708.91 86.00,2710.00 86.00,2710.00
             86.00,2710.00 94.72,2632.00 94.72,2632.00
             94.72,2632.00 106.16,2534.00 106.16,2534.00
             106.16,2534.00 112.84,2479.00 112.84,2479.00
             112.84,2479.00 134.84,2293.00 134.84,2293.00
             134.84,2293.00 147.84,2183.00 147.84,2183.00
             147.84,2183.00 167.72,2015.00 167.72,2015.00
             167.72,2015.00 170.08,1993.00 170.08,1993.00
             170.08,1993.00 170.08,1983.00 170.08,1983.00
             170.08,1983.00 147.28,1957.00 147.28,1957.00
             147.28,1957.00 139.40,1946.00 139.40,1946.00
             139.40,1946.00 140.84,1930.00 140.84,1930.00
             140.84,1930.00 144.83,1891.00 144.83,1891.00
             144.83,1891.00 148.83,1852.00 148.83,1852.00
             148.83,1852.00 151.08,1832.00 151.08,1832.00
             151.08,1832.00 163.35,1779.00 163.35,1779.00
             163.35,1779.00 175.00,1731.00 175.00,1731.00
             175.00,1731.00 171.00,1730.00 171.00,1730.00
             171.00,1730.00 176.42,1701.00 176.42,1701.00
             176.42,1701.00 188.42,1634.00 188.42,1634.00
             188.42,1634.00 218.61,1476.00 218.61,1476.00
             218.61,1476.00 231.58,1409.00 231.58,1409.00
             231.58,1409.00 278.58,1152.00 278.58,1152.00
             278.58,1152.00 335.39,841.00 335.39,841.00
             335.39,841.00 360.58,705.00 360.58,705.00
             360.58,705.00 369.58,655.00 369.58,655.00
             369.58,655.00 375.00,626.00 375.00,626.00 Z
           M 499.00,744.00
           C 499.00,744.00 529.00,751.13 529.00,751.13
             529.00,751.13 585.00,765.13 585.00,765.13
             585.00,765.13 617.00,773.13 617.00,773.13
             617.00,773.13 634.00,778.00 634.00,778.00
             634.00,778.00 592.00,778.00 592.00,778.00
             592.00,778.00 573.00,780.00 573.00,780.00
             577.59,796.11 584.23,796.25 584.00,816.00
             584.00,816.00 573.00,898.00 573.00,898.00
             573.00,898.00 507.00,883.58 507.00,883.58
             507.00,883.58 480.00,878.00 480.00,878.00
             480.00,878.00 484.41,847.00 484.41,847.00
             485.29,841.79 487.26,836.01 485.00,831.00
             488.38,826.77 490.31,811.91 491.13,806.00
             491.13,806.00 494.42,781.00 494.42,781.00
             494.42,781.00 496.20,771.83 496.20,771.83
             496.20,771.83 496.20,765.00 496.20,765.00
             497.16,757.97 499.39,751.18 499.00,744.00 Z
           M 692.00,792.00
           C 692.00,792.00 693.00,792.00 693.00,792.00
             693.00,792.00 692.00,793.00 692.00,793.00
             692.00,793.00 692.00,792.00 692.00,792.00 Z
           M 695.00,793.00
           C 695.00,793.00 746.00,805.63 746.00,805.63
             746.00,805.63 848.00,831.13 848.00,831.13
             848.00,831.13 904.00,845.13 904.00,845.13
             904.00,845.13 933.00,853.00 933.00,853.00
             933.00,853.00 902.00,860.00 902.00,860.00
             902.00,860.00 914.35,883.00 914.35,883.00
             914.35,883.00 914.99,891.00 914.99,891.00
             914.99,891.00 913.00,922.00 913.00,922.00
             913.00,922.00 912.00,958.00 912.00,958.00
             912.00,958.00 911.00,972.00 911.00,972.00
             911.00,972.00 860.00,961.21 860.00,961.21
             860.00,961.21 775.00,942.58 775.00,942.58
             775.00,942.58 722.00,931.00 722.00,931.00
             722.00,931.00 722.91,917.00 722.91,917.00
             722.91,917.00 725.91,874.00 725.91,874.00
             726.42,866.53 726.47,850.19 729.21,844.00
             731.33,839.21 741.93,828.11 746.00,824.00
             746.00,824.00 731.00,812.74 731.00,812.74
             731.00,812.74 713.00,801.21 713.00,801.21
             713.00,801.21 695.00,793.00 695.00,793.00 Z
           M 1016.00,873.00
           C 1016.00,873.00 1045.00,880.37 1045.00,880.37
             1045.00,880.37 1100.00,894.37 1100.00,894.37
             1100.00,894.37 1118.00,898.87 1118.00,898.87
             1118.00,898.87 1125.01,901.72 1125.01,901.72
             1125.01,901.72 1126.00,909.00 1126.00,909.00
             1126.00,909.00 1126.00,938.00 1126.00,938.00
             1126.00,938.00 1125.00,955.00 1125.00,955.00
             1125.00,955.00 1125.00,1019.00 1125.00,1019.00
             1125.00,1019.00 1097.00,1013.42 1097.00,1013.42
             1097.00,1013.42 1040.00,1001.00 1040.00,1001.00
             1040.00,1001.00 1043.96,948.00 1043.96,948.00
             1043.96,948.00 1044.97,927.00 1044.97,927.00
             1044.97,927.00 1045.56,917.00 1045.56,917.00
             1045.56,917.00 1059.00,898.00 1059.00,898.00
             1059.00,898.00 1041.00,889.25 1041.00,889.25
             1033.02,885.28 1021.76,879.80 1016.00,873.00 Z
           M 1329.00,879.00
           C 1329.00,879.00 1330.00,879.00 1330.00,879.00
             1330.00,879.00 1329.00,880.00 1329.00,880.00
             1329.00,880.00 1329.00,879.00 1329.00,879.00 Z
           M 1473.00,904.00
           C 1473.00,904.00 1474.00,904.00 1474.00,904.00
             1474.00,904.00 1473.00,905.00 1473.00,905.00
             1473.00,905.00 1473.00,904.00 1473.00,904.00 Z
           M 1829.00,1093.00
           C 1807.55,1077.77 1806.45,1077.14 1782.00,1068.66
             1782.00,1068.66 1770.00,1064.51 1770.00,1064.51
             1770.00,1064.51 1746.00,1061.93 1746.00,1061.93
             1731.51,1060.58 1727.26,1058.33 1712.00,1063.00
             1712.00,1063.00 1723.23,1087.00 1723.23,1087.00
             1723.23,1087.00 1729.75,1125.00 1729.75,1125.00
             1729.75,1125.00 1741.73,1201.00 1741.73,1201.00
             1741.73,1201.00 1747.42,1238.00 1747.42,1238.00
             1748.33,1243.84 1747.98,1249.37 1753.00,1253.00
             1750.63,1253.22 1747.44,1253.41 1745.59,1255.09
             1743.35,1257.08 1743.34,1265.07 1745.59,1267.02
             1746.93,1268.16 1752.10,1269.16 1754.00,1269.58
             1754.00,1269.58 1773.00,1273.42 1773.00,1273.42
             1773.00,1273.42 1835.00,1286.40 1835.00,1286.40
             1835.00,1286.40 1852.00,1290.00 1852.00,1290.00
             1853.88,1290.37 1858.13,1291.40 1859.64,1290.96
             1865.56,1289.53 1860.96,1276.28 1859.64,1274.93
             1856.92,1272.77 1843.69,1271.17 1840.00,1271.00
             1840.00,1271.00 1835.25,1246.00 1835.25,1246.00
             1835.25,1246.00 1821.20,1169.00 1821.20,1169.00
             1821.20,1169.00 1815.60,1139.00 1815.60,1139.00
             1815.60,1139.00 1812.75,1122.04 1812.75,1122.04
             1812.75,1122.04 1821.36,1111.00 1821.36,1111.00
             1821.36,1111.00 1829.00,1093.00 1829.00,1093.00 Z
           M 1501.00,1155.00
           C 1501.00,1155.00 1485.00,1145.18 1485.00,1145.18
             1485.00,1145.18 1454.00,1134.55 1454.00,1134.55
             1454.00,1134.55 1429.00,1123.09 1429.00,1123.09
             1429.00,1123.09 1395.00,1116.72 1395.00,1116.72
             1371.84,1113.67 1375.56,1113.03 1352.00,1115.85
             1347.35,1116.40 1342.50,1116.71 1338.00,1118.00
             1338.00,1118.00 1349.04,1141.00 1349.04,1141.00
             1350.82,1146.13 1350.04,1151.71 1350.37,1157.00
             1350.37,1157.00 1351.00,1171.00 1351.00,1171.00
             1351.00,1171.00 1352.00,1187.00 1352.00,1187.00
             1352.00,1187.00 1353.00,1201.00 1353.00,1201.00
             1353.00,1201.00 1354.09,1224.00 1354.09,1224.00
             1354.09,1224.00 1355.00,1234.00 1355.00,1234.00
             1355.00,1234.00 1356.00,1249.00 1356.00,1249.00
             1356.00,1249.00 1356.00,1258.00 1356.00,1258.00
             1356.00,1258.00 1357.00,1272.00 1357.00,1272.00
             1357.00,1272.00 1357.91,1284.00 1357.91,1284.00
             1357.91,1284.00 1359.00,1308.00 1359.00,1308.00
             1359.00,1308.00 1361.00,1339.00 1361.00,1339.00
             1361.01,1345.77 1359.68,1347.93 1366.00,1351.00
             1366.00,1351.00 1355.00,1353.00 1355.00,1353.00
             1355.00,1353.00 1355.00,1369.00 1355.00,1369.00
             1355.00,1369.00 1400.00,1376.75 1400.00,1376.75
             1400.00,1376.75 1481.00,1391.42 1481.00,1391.42
             1481.00,1391.42 1523.00,1399.00 1523.00,1399.00
             1524.24,1396.55 1525.32,1394.77 1525.89,1392.00
             1525.89,1392.00 1525.89,1386.00 1525.89,1386.00
             1525.76,1371.80 1509.27,1380.60 1504.17,1372.70
             1502.83,1370.62 1503.02,1366.54 1502.72,1364.00
             1502.72,1364.00 1500.17,1340.00 1500.17,1340.00
             1500.17,1340.00 1489.83,1236.00 1489.83,1236.00
             1489.83,1236.00 1485.91,1198.00 1485.91,1198.00
             1485.91,1198.00 1484.26,1187.00 1484.26,1187.00
             1484.66,1184.31 1488.40,1179.61 1490.00,1177.00
             1493.78,1170.83 1499.04,1161.87 1501.00,1155.00 Z
           M 718.00,1179.00
           C 718.00,1179.00 694.00,1162.63 694.00,1162.63
             694.00,1162.63 671.00,1153.58 671.00,1153.58
             671.00,1153.58 650.00,1145.92 650.00,1145.92
             650.00,1145.92 637.00,1143.58 637.00,1143.58
             618.17,1140.18 604.38,1137.22 585.00,1137.00
             585.00,1137.00 569.00,1136.00 569.00,1136.00
             569.00,1136.00 529.00,1141.00 529.00,1141.00
             529.00,1141.00 538.81,1169.00 538.81,1169.00
             538.81,1169.00 538.81,1191.00 538.81,1191.00
             538.81,1191.00 532.16,1253.00 532.16,1253.00
             532.16,1253.00 519.84,1363.00 519.84,1363.00
             519.84,1363.00 515.00,1405.00 515.00,1405.00
             515.00,1405.00 551.00,1411.00 551.00,1411.00
             551.00,1411.00 499.00,1404.00 499.00,1404.00
             499.00,1404.00 499.00,1422.00 499.00,1422.00
             499.00,1422.00 550.00,1430.58 550.00,1430.58
             550.00,1430.58 640.00,1446.42 640.00,1446.42
             640.00,1446.42 690.00,1455.00 690.00,1455.00
             690.00,1455.00 690.00,1438.00 690.00,1438.00
             690.00,1438.00 688.98,1432.60 688.98,1432.60
             688.98,1432.60 683.00,1431.00 683.00,1431.00
             683.00,1431.00 685.91,1394.00 685.91,1394.00
             685.91,1394.00 692.91,1309.00 692.91,1309.00
             692.91,1309.00 698.83,1236.00 698.83,1236.00
             698.83,1236.00 699.90,1222.00 699.90,1222.00
             700.26,1214.57 698.81,1213.55 701.76,1205.00
             704.15,1198.07 713.66,1186.73 718.00,1179.00 Z
           M 1043.00,1278.00
           C 1043.00,1272.64 1042.28,1268.63 1045.57,1264.00
             1048.31,1260.13 1058.38,1251.87 1056.18,1247.00
             1055.06,1244.52 1050.27,1240.43 1048.00,1238.78
             1042.19,1234.58 1029.70,1227.30 1023.00,1225.00
             995.90,1215.73 995.14,1215.31 967.00,1210.59
             959.39,1209.31 954.88,1208.01 947.00,1208.00
             947.00,1208.00 929.00,1208.00 929.00,1208.00
             929.00,1208.00 903.00,1210.04 903.00,1210.04
             900.43,1210.16 894.62,1210.61 892.87,1212.59
             890.04,1215.82 893.21,1220.90 894.75,1224.00
             897.04,1228.60 901.09,1236.06 901.79,1241.00
             901.79,1241.00 901.19,1254.00 901.19,1254.00
             901.19,1254.00 901.19,1279.00 901.19,1279.00
             901.19,1279.00 900.00,1296.00 900.00,1296.00
             900.00,1296.00 900.00,1310.00 900.00,1310.00
             900.00,1310.00 899.00,1325.00 899.00,1325.00
             899.00,1325.00 899.00,1341.00 899.00,1341.00
             899.00,1341.00 898.00,1356.00 898.00,1356.00
             898.00,1356.00 898.00,1370.00 898.00,1370.00
             898.00,1370.00 897.00,1386.00 897.00,1386.00
             897.00,1386.00 897.00,1400.00 897.00,1400.00
             897.00,1400.00 896.00,1416.00 896.00,1416.00
             896.00,1416.00 895.00,1462.00 895.00,1462.00
             895.00,1462.00 902.00,1463.00 902.00,1463.00
             902.00,1463.00 883.00,1464.00 883.00,1464.00
             883.24,1466.53 883.83,1475.89 885.02,1477.40
             886.44,1479.20 891.74,1479.56 894.00,1479.87
             894.00,1479.87 917.00,1483.27 917.00,1483.27
             917.00,1483.27 1010.00,1497.27 1010.00,1497.27
             1010.00,1497.27 1037.00,1501.41 1037.00,1501.41
             1039.31,1501.78 1046.74,1503.17 1048.59,1502.39
             1052.43,1500.75 1055.73,1487.10 1052.98,1483.60
             1051.42,1481.61 1044.52,1481.20 1042.00,1481.00
             1042.00,1481.00 1042.00,1448.00 1042.00,1448.00
             1042.00,1448.00 1043.00,1431.00 1043.00,1431.00
             1043.00,1431.00 1043.00,1375.00 1043.00,1375.00
             1043.00,1375.00 1044.00,1358.00 1044.00,1358.00
             1044.00,1358.00 1044.00,1328.00 1044.00,1328.00
             1044.00,1328.00 1044.00,1302.00 1044.00,1302.00
             1044.02,1287.76 1048.85,1283.89 1039.00,1278.00
             1039.00,1278.00 1043.00,1278.00 1043.00,1278.00 Z
           M 1064.00,1267.00
           C 1064.00,1267.00 1063.00,1267.00 1063.00,1267.00
             1063.00,1267.00 1064.00,1268.00 1064.00,1268.00
             1064.00,1268.00 1064.00,1267.00 1064.00,1267.00 Z
           M 1401.00,1354.00
           C 1401.00,1354.00 1402.00,1354.00 1402.00,1354.00
             1402.00,1354.00 1401.00,1355.00 1401.00,1355.00
             1401.00,1355.00 1401.00,1354.00 1401.00,1354.00 Z
           M 1899.00,1612.00
           C 1899.00,1612.00 1890.25,1559.00 1890.25,1559.00
             1890.25,1559.00 1869.61,1443.00 1869.61,1443.00
             1867.31,1430.09 1873.20,1432.93 1878.15,1424.99
             1879.58,1422.68 1881.08,1416.84 1881.85,1414.00
             1882.63,1411.11 1884.39,1406.03 1882.94,1403.30
             1881.65,1400.88 1876.40,1397.58 1874.00,1396.05
             1864.63,1390.09 1859.72,1386.50 1849.00,1383.28
             1821.34,1374.97 1804.21,1368.56 1775.00,1374.40
             1769.22,1375.56 1763.44,1376.69 1758.00,1379.00
             1758.00,1379.00 1772.91,1406.00 1772.91,1406.00
             1772.91,1406.00 1775.75,1424.00 1775.75,1424.00
             1775.75,1424.00 1782.42,1467.00 1782.42,1467.00
             1782.42,1467.00 1797.27,1563.00 1797.27,1563.00
             1797.27,1563.00 1803.00,1600.00 1803.00,1600.00
             1803.00,1600.00 1828.00,1602.85 1828.00,1602.85
             1828.00,1602.85 1899.00,1612.00 1899.00,1612.00 Z
           M 553.00,1411.00
           C 553.00,1411.00 558.00,1412.00 558.00,1412.00
             558.00,1412.00 553.00,1411.00 553.00,1411.00 Z
           M 1534.00,1497.00
           C 1534.00,1497.00 1519.00,1486.40 1519.00,1486.40
             1519.00,1486.40 1479.00,1472.58 1479.00,1472.58
             1479.00,1472.58 1449.00,1464.46 1449.00,1464.46
             1449.00,1464.46 1434.00,1462.58 1434.00,1462.58
             1434.00,1462.58 1414.00,1460.51 1414.00,1460.51
             1414.00,1460.51 1387.00,1462.83 1387.00,1462.83
             1387.00,1462.83 1378.00,1463.44 1378.00,1463.44
             1378.00,1463.44 1359.00,1468.00 1359.00,1468.00
             1359.00,1468.00 1373.75,1496.00 1373.75,1496.00
             1373.75,1496.00 1373.75,1504.00 1373.75,1504.00
             1373.75,1504.00 1383.00,1505.00 1383.00,1505.00
             1383.00,1505.00 1377.00,1505.00 1377.00,1505.00
             1377.00,1505.00 1380.00,1553.00 1380.00,1553.00
             1380.00,1553.00 1380.00,1562.00 1380.00,1562.00
             1380.00,1562.00 1385.91,1646.00 1385.91,1646.00
             1385.91,1646.00 1389.91,1708.00 1389.91,1708.00
             1389.91,1708.00 1392.00,1738.00 1392.00,1738.00
             1392.00,1738.00 1542.00,1758.00 1542.00,1758.00
             1542.00,1758.00 1541.09,1746.00 1541.09,1746.00
             1541.09,1746.00 1537.17,1707.00 1537.17,1707.00
             1537.17,1707.00 1525.83,1590.00 1525.83,1590.00
             1525.83,1590.00 1521.83,1550.00 1521.83,1550.00
             1521.83,1550.00 1520.00,1532.28 1520.00,1532.28
             1520.00,1532.28 1527.70,1521.00 1527.70,1521.00
             1527.70,1521.00 1534.00,1497.00 1534.00,1497.00 Z
           M 1061.00,1651.00
           C 1051.78,1644.85 1033.91,1633.51 1024.00,1629.47
             1024.00,1629.47 1008.00,1624.85 1008.00,1624.85
             983.92,1618.33 985.33,1619.27 961.00,1616.83
             961.00,1616.83 928.00,1613.57 928.00,1613.57
             928.00,1613.57 908.00,1615.72 908.00,1615.72
             908.00,1615.72 901.00,1616.32 901.00,1616.32
             890.12,1618.12 880.28,1623.41 870.00,1627.00
             870.00,1627.00 887.43,1662.00 887.43,1662.00
             887.43,1662.00 884.51,1672.00 884.51,1672.00
             884.51,1672.00 883.00,1689.00 883.00,1689.00
             883.00,1689.00 882.00,1744.00 882.00,1744.00
             882.00,1744.00 881.00,1761.00 881.00,1761.00
             881.00,1761.00 881.00,1782.00 881.00,1782.00
             881.00,1782.00 880.00,1798.00 880.00,1798.00
             880.00,1798.00 880.00,1818.00 880.00,1818.00
             880.00,1818.00 879.00,1834.00 879.00,1834.00
             879.00,1834.00 879.00,1854.00 879.00,1854.00
             879.00,1854.00 878.00,1870.00 878.00,1870.00
             878.00,1870.00 877.00,1931.00 877.00,1931.00
             875.05,1931.01 871.29,1930.74 869.74,1931.99
             867.72,1933.62 866.90,1942.48 868.06,1944.72
             868.92,1946.37 871.57,1948.61 873.00,1949.87
             874.94,1951.57 879.96,1955.98 882.00,1956.98
             885.99,1958.94 899.14,1958.98 904.00,1959.00
             904.00,1959.00 918.00,1960.00 918.00,1960.00
             918.00,1960.00 944.00,1961.00 944.00,1961.00
             944.00,1961.00 957.00,1962.00 957.00,1962.00
             957.00,1962.00 984.00,1963.00 984.00,1963.00
             984.00,1963.00 1001.00,1964.00 1001.00,1964.00
             1001.00,1964.00 1017.00,1965.00 1017.00,1965.00
             1017.00,1965.00 1042.00,1966.00 1042.00,1966.00
             1042.00,1966.00 1055.98,1967.00 1055.98,1967.00
             1056.00,1963.94 1057.00,1950.05 1055.98,1948.51
             1053.94,1945.47 1046.93,1945.40 1044.40,1943.15
             1042.04,1941.05 1043.00,1935.10 1043.00,1932.00
             1043.00,1932.00 1043.00,1782.00 1043.00,1782.00
             1043.00,1782.00 1044.16,1767.00 1044.16,1767.00
             1044.16,1767.00 1044.16,1691.00 1044.16,1691.00
             1044.00,1688.76 1043.91,1686.16 1044.17,1684.00
             1044.17,1684.00 1061.00,1651.00 1061.00,1651.00 Z
           M 1951.00,1761.00
           C 1951.00,1761.00 1930.00,1747.40 1930.00,1747.40
             1930.00,1747.40 1902.00,1739.12 1902.00,1739.12
             1902.00,1739.12 1886.00,1734.67 1886.00,1734.67
             1872.10,1731.70 1857.98,1731.51 1844.00,1733.58
             1844.00,1733.58 1832.00,1735.62 1832.00,1735.62
             1827.49,1737.01 1818.44,1742.45 1814.00,1745.00
             1814.00,1745.00 1832.44,1776.00 1832.44,1776.00
             1832.44,1776.00 1836.13,1797.00 1836.13,1797.00
             1836.13,1797.00 1841.27,1831.00 1841.27,1831.00
             1841.27,1831.00 1858.41,1942.00 1858.41,1942.00
             1858.41,1942.00 1865.00,1985.00 1865.00,1985.00
             1865.45,1988.27 1866.70,2000.23 1868.74,2002.10
             1871.52,2004.64 1881.16,2003.96 1885.00,2004.00
             1885.00,2004.00 1903.00,2005.00 1903.00,2005.00
             1903.00,2005.00 1913.00,2006.00 1913.00,2006.00
             1913.00,2006.00 1924.00,2006.00 1924.00,2006.00
             1924.00,2006.00 1936.00,2007.00 1936.00,2007.00
             1936.00,2007.00 1950.00,2007.91 1950.00,2007.91
             1950.00,2007.91 1970.00,2009.00 1970.00,2009.00
             1970.00,2009.00 1959.61,1947.00 1959.61,1947.00
             1959.61,1947.00 1941.75,1844.00 1941.75,1844.00
             1941.75,1844.00 1935.75,1810.00 1935.75,1810.00
             1935.75,1810.00 1933.15,1795.30 1933.15,1795.30
             1933.28,1791.03 1939.07,1789.40 1942.30,1784.91
             1944.20,1782.27 1950.13,1764.81 1951.00,1761.00 Z
           M 1613.05,2235.00
           C 1613.18,2231.08 1615.47,2220.35 1613.05,2217.59
             1611.16,2215.32 1603.90,2215.04 1601.00,2215.00
             1598.13,2214.97 1592.84,2215.55 1590.74,2213.40
             1588.95,2211.57 1588.33,2201.07 1588.08,2198.00
             1588.08,2198.00 1584.08,2159.00 1584.08,2159.00
             1584.08,2159.00 1579.17,2111.00 1579.17,2111.00
             1579.17,2111.00 1565.17,1974.00 1565.17,1974.00
             1565.17,1974.00 1562.58,1948.00 1562.58,1948.00
             1562.58,1948.00 1561.13,1932.46 1561.13,1932.46
             1561.89,1929.47 1565.56,1928.01 1568.30,1923.99
             1570.20,1921.20 1574.11,1909.88 1575.58,1906.00
             1576.73,1902.93 1579.61,1897.52 1577.36,1894.61
             1576.33,1893.27 1571.63,1890.42 1570.00,1889.43
             1561.53,1884.25 1548.69,1881.61 1539.00,1877.94
             1539.00,1877.94 1526.00,1872.62 1526.00,1872.62
             1526.00,1872.62 1510.00,1869.58 1510.00,1869.58
             1510.00,1869.58 1492.00,1866.06 1492.00,1866.06
             1492.00,1866.06 1483.00,1866.06 1483.00,1866.06
             1483.00,1866.06 1460.00,1864.00 1460.00,1864.00
             1460.00,1864.00 1437.00,1864.00 1437.00,1864.00
             1423.03,1864.02 1406.10,1871.82 1392.00,1875.00
             1392.00,1875.00 1406.08,1913.00 1406.08,1913.00
             1406.08,1913.00 1408.00,1936.00 1408.00,1936.00
             1408.00,1936.00 1410.00,1968.00 1410.00,1968.00
             1410.00,1968.00 1410.91,1979.00 1410.91,1979.00
             1410.91,1979.00 1412.11,2003.83 1412.11,2003.83
             1412.11,2003.83 1414.00,2030.00 1414.00,2030.00
             1414.00,2030.00 1415.00,2049.00 1415.00,2049.00
             1415.00,2049.00 1417.00,2085.00 1417.00,2085.00
             1417.00,2085.00 1417.91,2095.00 1417.91,2095.00
             1417.91,2095.00 1419.00,2118.00 1419.00,2118.00
             1419.00,2118.00 1420.00,2128.00 1420.00,2128.00
             1420.00,2128.00 1420.00,2138.00 1420.00,2138.00
             1420.00,2138.00 1421.00,2152.00 1421.00,2152.00
             1421.00,2152.00 1422.00,2162.00 1422.00,2162.00
             1422.00,2162.00 1422.00,2171.00 1422.00,2171.00
             1422.00,2171.00 1424.00,2208.00 1424.00,2208.00
             1421.07,2208.41 1418.58,2208.84 1416.60,2211.34
             1413.18,2215.65 1414.75,2227.04 1418.34,2230.85
             1421.63,2234.35 1424.62,2233.99 1429.00,2234.00
             1429.00,2234.00 1518.00,2234.00 1518.00,2234.00
             1518.00,2234.00 1533.00,2235.00 1533.00,2235.00
             1533.00,2235.00 1613.05,2235.00 1613.05,2235.00 Z
           M 1064.00,2148.00
           C 1064.00,2148.00 1045.00,2134.04 1045.00,2134.04
             1045.00,2134.04 1032.00,2128.95 1032.00,2128.95
             1032.00,2128.95 1014.00,2122.49 1014.00,2122.49
             1007.30,2120.68 975.79,2116.03 969.00,2116.00
             969.00,2116.00 956.00,2116.00 956.00,2116.00
             956.00,2116.00 941.00,2115.00 941.00,2115.00
             921.73,2114.78 907.80,2121.27 892.00,2122.00
             892.00,2122.00 893.91,2147.00 893.91,2147.00
             893.91,2147.00 896.00,2174.00 896.00,2174.00
             896.00,2174.00 870.00,2180.13 870.00,2180.13
             870.00,2180.13 860.96,2183.56 860.96,2183.56
             860.96,2183.56 860.96,2192.00 860.96,2192.00
             860.96,2192.00 860.96,2208.00 860.96,2208.00
             860.96,2208.00 860.96,2262.00 860.96,2262.00
             860.96,2262.00 862.00,2279.00 862.00,2279.00
             862.00,2279.00 862.00,2342.00 862.00,2342.00
             862.00,2342.00 863.00,2359.00 863.00,2359.00
             863.00,2359.00 863.00,2425.00 863.00,2425.00
             863.00,2425.00 864.00,2440.00 864.00,2440.00
             864.00,2440.00 864.00,2506.00 864.00,2506.00
             864.00,2506.00 865.00,2521.00 865.00,2521.00
             865.00,2521.00 865.00,2540.00 865.00,2540.00
             865.00,2540.00 944.00,2540.00 944.00,2540.00
             944.00,2540.00 959.00,2541.00 959.00,2541.00
             959.00,2541.00 1044.00,2541.00 1044.00,2541.00
             1044.00,2541.00 1044.00,2469.00 1044.00,2469.00
             1044.00,2469.00 1043.00,2454.00 1043.00,2454.00
             1043.00,2454.00 1043.00,2363.00 1043.00,2363.00
             1043.00,2363.00 1042.00,2348.00 1042.00,2348.00
             1042.00,2348.00 1042.00,2262.00 1042.00,2262.00
             1042.00,2262.00 1041.00,2242.00 1041.00,2242.00
             1041.00,2242.00 1041.00,2212.00 1041.00,2212.00
             1041.00,2212.00 1042.63,2188.00 1042.63,2188.00
             1042.63,2188.00 1043.85,2181.00 1043.85,2181.00
             1043.85,2181.00 1064.00,2148.00 1064.00,2148.00 Z">
        <title>Auswahl #2</title>
  </path>
</svg>
