<?xml version="1.0" encoding="UTF-8" standalone="no"?>
<svg xmlns="http://www.w3.org/2000/svg"
     xmlns:svg="http://www.w3.org/2000/svg"
     version="1.1"
     width="55.5556in" height="31.25in"
     viewBox="0 0 4000 2250">
  <path id="path1"
        fill="white" stroke="black" stroke-width="1"
        d="M 2579.00,582.00
           C 2576.76,581.97 2573.60,582.27 2571.98,580.40
             2570.65,578.85 2569.66,572.28 2569.20,570.00
             2569.20,570.00 2564.00,544.00 2564.00,544.00
             2564.00,544.00 2542.60,436.00 2542.60,436.00
             2542.60,436.00 2537.59,410.00 2537.59,410.00
             2536.91,406.31 2535.17,401.61 2537.59,398.32
             2537.59,398.32 2557.00,383.63 2557.00,383.63
             2557.00,383.63 2605.00,348.58 2605.00,348.58
             2605.00,348.58 2621.00,336.85 2621.00,336.85
             2623.18,335.26 2627.57,331.65 2630.00,331.06
             2632.93,330.35 2637.28,332.66 2640.00,333.86
             2640.00,333.86 2660.00,342.58 2660.00,342.58
             2660.00,342.58 2729.00,372.58 2729.00,372.58
             2729.00,372.58 2748.00,380.72 2748.00,380.72
             2750.62,381.85 2755.38,383.52 2757.18,385.64
             2758.64,387.35 2759.63,391.71 2760.34,394.00
             2760.34,394.00 2766.34,414.00 2766.34,414.00
             2766.34,414.00 2788.29,488.00 2788.29,488.00
             2788.29,488.00 2804.34,542.00 2804.34,542.00
             2805.59,546.00 2810.93,561.92 2810.22,565.00
             2809.60,567.73 2807.51,568.80 2806.00,574.00
             2815.38,575.51 2810.33,578.97 2823.00,578.96
             2823.00,578.96 2837.00,578.96 2837.00,578.96
             2837.00,578.96 2849.00,578.00 2849.00,578.00
             2849.00,578.00 2886.00,577.00 2886.00,577.00
             2886.00,577.00 2898.00,576.04 2898.00,576.04
             2898.00,576.04 2910.00,576.04 2910.00,576.04
             2912.63,575.99 2915.60,576.19 2918.00,574.98
             2923.37,572.26 2922.49,568.48 2931.00,565.00
             2931.66,567.18 2932.37,570.67 2934.43,571.97
             2936.30,573.10 2942.40,572.03 2945.00,571.97
             2945.00,571.97 2966.00,571.00 2966.00,571.00
             2966.00,571.00 2983.00,570.00 2983.00,570.00
             2983.00,570.00 2997.00,569.00 2997.00,569.00
             2997.00,569.00 3010.00,568.00 3010.00,568.00
             3010.00,568.00 3019.00,568.00 3019.00,568.00
             3019.00,568.00 3032.00,567.00 3032.00,567.00
             3032.00,567.00 3050.00,566.00 3050.00,566.00
             3050.00,566.00 3060.00,565.00 3060.00,565.00
             3060.00,565.00 3070.00,565.00 3070.00,565.00
             3070.00,565.00 3084.00,564.00 3084.00,564.00
             3084.00,564.00 3100.00,563.00 3100.00,563.00
             3100.00,563.00 3111.00,562.09 3111.00,562.09
             3111.00,562.09 3134.00,561.00 3134.00,561.00
             3134.00,561.00 3151.00,560.00 3151.00,560.00
             3151.00,560.00 3165.00,559.00 3165.00,559.00
             3165.00,559.00 3203.00,557.00 3203.00,557.00
             3203.00,557.00 3213.00,556.00 3213.00,556.00
             3213.00,556.00 3224.00,556.00 3224.00,556.00
             3224.00,556.00 3237.00,555.00 3237.00,555.00
             3237.00,555.00 3272.00,553.00 3272.00,553.00
             3278.84,552.99 3292.72,552.04 3299.00,550.00
             3299.00,550.00 3311.14,577.00 3311.14,577.00
             3311.14,577.00 3341.22,642.00 3341.22,642.00
             3341.22,642.00 3393.31,755.00 3393.31,755.00
             3393.31,755.00 3418.74,807.00 3418.74,807.00
             3418.74,807.00 3578.26,1134.00 3578.26,1134.00
             3578.26,1134.00 3622.74,1224.00 3622.74,1224.00
             3622.74,1224.00 3639.26,1259.00 3639.26,1259.00
             3639.26,1259.00 3713.26,1413.00 3713.26,1413.00
             3713.26,1413.00 3738.25,1464.00 3738.25,1464.00
             3742.21,1471.92 3749.51,1484.75 3751.00,1493.00
             3751.00,1493.00 3755.00,1494.00 3755.00,1494.00
             3755.00,1494.00 3707.00,1494.00 3707.00,1494.00
             3707.00,1494.00 3690.00,1495.00 3690.00,1495.00
             3690.00,1495.00 3574.00,1495.00 3574.00,1495.00
             3574.00,1495.00 3559.00,1496.00 3559.00,1496.00
             3559.00,1496.00 3443.00,1496.00 3443.00,1496.00
             3443.00,1496.00 3428.00,1497.00 3428.00,1497.00
             3428.00,1497.00 3312.00,1497.00 3312.00,1497.00
             3312.00,1497.00 3297.00,1498.00 3297.00,1498.00
             3297.00,1498.00 3249.00,1498.00 3249.00,1498.00
             3249.00,1498.00 3232.00,1499.00 3232.00,1499.00
             3232.00,1499.00 3049.00,1499.00 3049.00,1499.00
             3049.00,1499.00 3034.00,1500.00 3034.00,1500.00
             3034.00,1500.00 2930.00,1500.00 2930.00,1500.00
             2930.00,1500.00 2906.00,1500.00 2906.00,1500.00
             2900.55,1500.00 2897.11,1501.05 2893.00,1497.00
             2893.00,1497.00 2900.00,1495.00 2900.00,1495.00
             2900.00,1495.00 2900.00,1493.00 2900.00,1493.00
             2900.00,1493.00 2897.00,1490.00 2897.00,1490.00
             2897.00,1490.00 2911.00,1487.00 2911.00,1487.00
             2907.03,1482.34 2899.97,1480.54 2894.00,1480.00
             2894.59,1475.52 2893.96,1474.96 2892.00,1471.00
             2894.02,1470.67 2898.87,1470.87 2899.66,1468.71
             2900.62,1466.13 2896.79,1464.00 2895.01,1463.03
             2888.67,1459.55 2887.10,1454.99 2879.00,1455.03
             2871.89,1455.06 2869.48,1458.73 2864.01,1458.37
             2859.70,1458.09 2858.28,1454.98 2854.96,1454.57
             2851.64,1454.15 2849.69,1456.66 2846.00,1456.65
             2842.29,1456.64 2835.32,1453.06 2832.00,1453.23
             2832.00,1453.23 2825.00,1454.87 2825.00,1454.87
             2821.62,1455.27 2815.93,1454.54 2813.00,1455.60
             2809.63,1456.82 2807.81,1459.66 2804.00,1461.11
             2800.81,1462.32 2794.58,1462.00 2791.00,1462.00
             2789.90,1452.57 2785.10,1454.31 2778.00,1452.59
             2774.24,1451.68 2773.61,1450.36 2769.00,1450.03
             2759.01,1449.38 2760.49,1454.35 2752.00,1450.03
             2754.06,1444.65 2761.57,1442.17 2767.00,1442.00
             2767.00,1442.00 2762.00,1434.00 2762.00,1434.00
             2762.00,1434.00 2866.00,1434.00 2866.00,1434.00
             2866.00,1434.00 2881.00,1433.00 2881.00,1433.00
             2881.00,1433.00 2908.00,1433.00 2908.00,1433.00
             2908.00,1433.00 2903.00,1400.00 2903.00,1400.00
             2903.00,1400.00 2894.58,1398.98 2894.58,1398.98
             2894.58,1398.98 2890.63,1387.00 2890.63,1387.00
             2890.63,1387.00 2882.88,1355.00 2882.88,1355.00
             2882.88,1355.00 2859.63,1257.00 2859.63,1257.00
             2859.63,1257.00 2847.00,1201.00 2847.00,1201.00
             2847.00,1201.00 2854.00,1201.00 2854.00,1201.00
             2854.00,1201.00 2847.00,1172.00 2847.00,1172.00
             2847.00,1172.00 2833.00,1173.00 2833.00,1173.00
             2833.00,1173.00 2782.00,1174.00 2782.00,1174.00
             2782.00,1174.00 2767.00,1175.00 2767.00,1175.00
             2767.00,1175.00 2748.00,1175.00 2748.00,1175.00
             2748.00,1175.00 2731.00,1176.00 2731.00,1176.00
             2731.00,1176.00 2711.00,1176.00 2711.00,1176.00
             2711.00,1176.00 2695.00,1177.00 2695.00,1177.00
             2695.00,1177.00 2677.00,1177.00 2677.00,1177.00
             2677.00,1177.00 2659.00,1178.00 2659.00,1178.00
             2659.00,1178.00 2663.00,1206.00 2663.00,1206.00
             2663.00,1206.00 2673.00,1206.00 2673.00,1206.00
             2673.00,1206.00 2689.00,1287.00 2689.00,1287.00
             2689.00,1287.00 2682.00,1286.03 2682.00,1286.03
             2682.00,1286.03 2677.00,1284.35 2677.00,1284.35
             2671.86,1283.28 2667.51,1286.20 2666.00,1291.00
             2666.00,1291.00 2655.00,1302.00 2655.00,1302.00
             2655.00,1302.00 2651.41,1279.00 2651.41,1279.00
             2651.41,1279.00 2642.41,1228.00 2642.41,1228.00
             2639.11,1208.35 2636.27,1205.34 2646.00,1205.00
             2646.00,1205.00 2642.00,1176.00 2642.00,1176.00
             2642.00,1176.00 2605.00,1177.00 2605.00,1177.00
             2605.00,1177.00 2591.00,1178.00 2591.00,1178.00
             2591.00,1178.00 2563.00,1178.00 2563.00,1178.00
             2563.00,1178.00 2548.00,1179.00 2548.00,1179.00
             2548.00,1179.00 2479.00,1180.00 2479.00,1180.00
             2479.00,1180.00 2459.00,1181.00 2459.00,1181.00
             2459.00,1181.00 2462.59,1206.85 2462.59,1206.85
             2465.00,1212.21 2469.54,1207.16 2471.23,1215.02
             2471.23,1215.02 2475.28,1245.00 2475.28,1245.00
             2475.28,1245.00 2484.15,1312.00 2484.15,1312.00
             2484.15,1312.00 2489.05,1349.00 2489.05,1349.00
             2489.05,1349.00 2490.70,1361.89 2490.70,1361.89
             2490.26,1369.19 2481.48,1362.24 2481.00,1371.00
             2474.20,1371.31 2466.74,1374.26 2471.00,1364.00
             2471.00,1364.00 2465.00,1363.00 2465.00,1363.00
             2465.00,1363.00 2471.00,1358.00 2471.00,1358.00
             2467.14,1351.42 2461.37,1349.23 2454.00,1349.00
             2454.00,1349.00 2448.28,1298.00 2448.28,1298.00
             2448.28,1298.00 2438.00,1211.00 2438.00,1211.00
             2438.00,1211.00 2446.00,1211.00 2446.00,1211.00
             2446.00,1211.00 2443.58,1191.00 2443.58,1191.00
             2443.58,1191.00 2441.40,1183.60 2441.40,1183.60
             2441.40,1183.60 2433.00,1182.00 2433.00,1182.00
             2433.00,1182.00 2417.00,1182.00 2417.00,1182.00
             2417.00,1182.00 2401.00,1183.00 2401.00,1183.00
             2401.00,1183.00 2288.00,1185.00 2288.00,1185.00
             2288.00,1185.00 2271.00,1186.00 2271.00,1186.00
             2271.00,1186.00 2265.00,1186.00 2265.00,1186.00
             2265.00,1186.00 2265.96,1199.00 2265.96,1199.00
             2265.96,1199.00 2265.96,1214.00 2265.96,1214.00
             2265.96,1214.00 2275.00,1214.00 2275.00,1214.00
             2275.00,1214.00 2276.91,1240.00 2276.91,1240.00
             2276.91,1240.00 2281.09,1302.00 2281.09,1302.00
             2281.09,1302.00 2282.99,1327.00 2282.99,1327.00
             2283.04,1329.14 2283.58,1334.20 2282.99,1335.87
             2281.20,1340.76 2271.64,1339.04 2268.04,1337.35
             2268.04,1337.35 2253.99,1326.47 2253.99,1326.47
             2252.16,1323.75 2253.80,1321.38 2248.94,1318.48
             2242.59,1314.69 2225.90,1316.32 2222.02,1310.58
             2221.18,1309.34 2221.23,1308.36 2221.00,1307.00
             2228.45,1308.01 2227.52,1310.63 2235.00,1309.00
             2235.00,1309.00 2231.13,1302.00 2231.13,1302.00
             2231.13,1302.00 2229.32,1296.58 2229.32,1296.58
             2229.32,1296.58 2217.00,1291.00 2217.00,1291.00
             2217.00,1291.00 2221.00,1288.00 2221.00,1288.00
             2221.00,1288.00 2211.00,1289.00 2211.00,1289.00
             2209.65,1280.95 2205.04,1283.85 2198.00,1284.00
             2198.00,1284.00 2198.00,1287.00 2198.00,1287.00
             2198.00,1287.00 2193.00,1287.00 2193.00,1287.00
             2193.00,1287.00 2195.00,1293.00 2195.00,1293.00
             2193.63,1295.15 2192.47,1296.22 2193.45,1298.96
             2194.67,1302.37 2200.67,1305.63 2195.00,1308.00
             2195.00,1308.00 2196.00,1314.00 2196.00,1314.00
             2196.00,1314.00 2192.00,1318.00 2192.00,1318.00
             2192.00,1318.00 2197.00,1318.00 2197.00,1318.00
             2195.00,1327.50 2193.34,1326.27 2191.53,1331.09
             2190.79,1333.08 2190.81,1335.73 2188.69,1336.88
             2186.18,1338.23 2183.07,1336.33 2181.00,1335.00
             2183.16,1332.90 2180.97,1332.28 2179.00,1331.00
             2179.00,1331.00 2180.00,1329.00 2180.00,1329.00
             2174.47,1327.77 2175.34,1328.79 2171.00,1328.47
             2165.58,1328.08 2155.44,1324.31 2158.00,1334.00
             2152.26,1337.03 2145.34,1336.00 2139.00,1336.00
             2139.00,1336.00 2138.00,1321.00 2138.00,1321.00
             2138.00,1321.00 2136.00,1237.00 2136.00,1237.00
             2136.00,1237.00 2135.00,1219.00 2135.00,1219.00
             2135.00,1219.00 2143.00,1219.00 2143.00,1219.00
             2143.00,1219.00 2143.00,1203.00 2143.00,1203.00
             2143.00,1203.00 2144.00,1190.00 2144.00,1190.00
             2144.00,1190.00 2130.00,1190.00 2130.00,1190.00
             2130.00,1190.00 2115.00,1191.00 2115.00,1191.00
             2115.00,1191.00 2010.00,1193.00 2010.00,1193.00
             2010.00,1193.00 1994.00,1194.00 1994.00,1194.00
             1994.00,1194.00 1970.00,1194.00 1970.00,1194.00
             1970.00,1194.00 1970.00,1223.00 1970.00,1223.00
             1980.28,1223.13 1977.12,1225.41 1977.00,1235.00
             1977.00,1235.00 1977.00,1268.00 1977.00,1268.00
             1977.00,1268.00 1976.00,1285.00 1976.00,1285.00
             1976.00,1285.00 1975.00,1365.00 1975.00,1365.00
             1975.00,1365.00 1974.00,1380.00 1974.00,1380.00
             1974.00,1380.00 1974.00,1403.00 1974.00,1403.00
             1974.00,1405.06 1974.24,1408.74 1972.98,1410.42
             1971.14,1412.86 1967.54,1411.73 1966.31,1416.11
             1966.31,1416.11 1965.00,1443.00 1965.00,1443.00
             1965.00,1443.00 1996.00,1443.00 1996.00,1443.00
             1996.00,1443.00 1996.00,1440.00 1996.00,1440.00
             1996.00,1440.00 2108.00,1440.00 2108.00,1440.00
             2108.00,1440.00 2102.58,1449.48 2102.58,1449.48
             2102.58,1449.48 2083.14,1456.17 2083.14,1456.17
             2083.14,1456.17 2080.00,1460.00 2080.00,1460.00
             2080.00,1460.00 2089.00,1461.00 2089.00,1461.00
             2087.37,1470.50 2073.62,1468.63 2083.00,1477.00
             2083.00,1477.00 2082.00,1480.00 2082.00,1480.00
             2082.00,1480.00 2086.00,1480.00 2086.00,1480.00
             2086.00,1480.00 2083.00,1491.00 2083.00,1491.00
             2085.43,1491.38 2088.49,1491.74 2090.25,1493.70
             2092.98,1496.75 2090.62,1503.04 2087.52,1505.01
             2085.58,1506.24 2082.25,1506.00 2080.00,1506.00
             2080.00,1506.00 1842.00,1506.00 1842.00,1506.00
             1842.00,1506.00 1844.00,1484.00 1844.00,1484.00
             1844.00,1484.00 1845.00,1467.00 1845.00,1467.00
             1845.00,1467.00 1846.00,1439.00 1846.00,1439.00
             1846.00,1439.00 1847.00,1423.00 1847.00,1423.00
             1847.00,1423.00 1848.00,1397.00 1848.00,1397.00
             1848.00,1397.00 1849.00,1380.00 1849.00,1380.00
             1849.00,1380.00 1850.00,1366.00 1850.00,1366.00
             1850.00,1366.00 1851.00,1345.00 1851.00,1345.00
             1851.00,1345.00 1853.08,1330.83 1853.08,1330.83
             1853.08,1330.83 1852.02,1323.00 1852.02,1323.00
             1852.02,1323.00 1853.00,1309.00 1853.00,1309.00
             1853.00,1309.00 1854.00,1292.00 1854.00,1292.00
             1854.00,1292.00 1856.00,1254.00 1856.00,1254.00
             1856.00,1254.00 1857.00,1244.00 1857.00,1244.00
             1857.00,1244.00 1857.00,1234.00 1857.00,1234.00
             1857.00,1234.00 1858.00,1220.00 1858.00,1220.00
             1858.00,1220.00 1859.00,1210.00 1859.00,1210.00
             1859.00,1210.00 1859.00,1200.00 1859.00,1200.00
             1859.00,1200.00 1860.00,1185.00 1860.00,1185.00
             1860.00,1185.00 1860.96,1175.00 1860.96,1175.00
             1860.96,1175.00 1860.96,1166.00 1860.96,1166.00
             1860.96,1166.00 1862.00,1149.00 1862.00,1149.00
             1862.00,1149.00 1863.00,1133.00 1863.00,1133.00
             1863.00,1133.00 1864.00,1114.00 1864.00,1114.00
             1864.00,1114.00 1865.00,1090.00 1865.00,1090.00
             1865.00,1090.00 1866.00,1073.00 1866.00,1073.00
             1866.00,1073.00 1867.00,1059.00 1867.00,1059.00
             1867.00,1059.00 1868.00,1042.00 1868.00,1042.00
             1868.00,1042.00 1869.00,1020.00 1869.00,1020.00
             1869.00,1020.00 1870.00,1006.00 1870.00,1006.00
             1870.00,1006.00 1871.00,987.00 1871.00,987.00
             1871.00,987.00 1872.00,969.00 1872.00,969.00
             1872.00,969.00 1873.29,954.00 1873.29,954.00
             1873.29,954.00 1874.86,946.00 1874.86,946.00
             1874.86,946.00 1874.00,936.00 1874.00,936.00
             1874.00,936.00 1875.91,912.00 1875.91,912.00
             1875.91,912.00 1878.09,876.00 1878.09,876.00
             1878.09,876.00 1880.00,843.00 1880.00,843.00
             1880.00,843.00 1880.96,833.00 1880.96,833.00
             1880.96,833.00 1880.96,824.00 1880.96,824.00
             1880.96,824.00 1882.00,805.00 1882.00,805.00
             1882.00,805.00 1883.00,792.00 1883.00,792.00
             1883.00,792.00 1884.00,766.00 1884.00,766.00
             1884.00,766.00 1885.00,747.00 1885.00,747.00
             1885.00,747.00 1886.00,732.00 1886.00,732.00
             1886.00,732.00 1887.00,713.00 1887.00,713.00
             1887.00,713.00 1889.00,674.00 1889.00,674.00
             1889.00,674.00 1890.18,653.01 1890.18,653.01
             1890.18,653.01 1891.77,646.88 1891.77,646.88
             1891.77,646.88 1891.00,637.00 1891.00,637.00
             1891.00,637.00 1905.00,636.00 1905.00,636.00
             1905.00,636.00 1914.00,636.00 1914.00,636.00
             1914.00,636.00 1937.00,634.00 1937.00,634.00
             1937.00,634.00 1946.00,634.00 1946.00,634.00
             1946.00,634.00 2001.00,630.09 2001.00,630.09
             2001.00,630.09 2026.00,628.91 2026.00,628.91
             2026.00,628.91 2162.00,620.09 2162.00,620.09
             2162.00,620.09 2187.00,618.91 2187.00,618.91
             2187.00,618.91 2242.00,615.09 2242.00,615.09
             2242.00,615.09 2268.98,613.66 2268.98,613.66
             2275.82,612.22 2281.56,600.77 2271.00,599.00
             2271.00,599.00 2266.83,552.00 2266.83,552.00
             2266.83,552.00 2259.83,472.00 2259.83,472.00
             2259.83,472.00 2256.93,438.00 2256.93,438.00
             2256.43,433.86 2254.97,426.87 2256.93,423.09
             2258.95,419.54 2274.74,409.19 2279.00,406.14
             2279.00,406.14 2331.00,368.86 2331.00,368.86
             2331.00,368.86 2348.00,356.71 2348.00,356.71
             2350.03,355.27 2353.60,352.45 2356.00,352.11
             2358.71,351.73 2362.50,354.03 2365.00,355.14
             2365.00,355.14 2385.00,364.75 2385.00,364.75
             2385.00,364.75 2447.00,394.75 2447.00,394.75
             2447.00,394.75 2463.00,402.75 2463.00,402.75
             2465.23,403.87 2469.65,405.81 2471.18,407.63
             2473.12,409.97 2474.03,418.67 2474.59,422.00
             2474.59,422.00 2480.25,456.00 2480.25,456.00
             2480.25,456.00 2493.08,534.00 2493.08,534.00
             2493.08,534.00 2498.41,567.00 2498.41,567.00
             2499.04,570.72 2501.08,580.86 2500.70,584.00
             2500.31,587.32 2499.38,587.41 2499.00,593.00
             2499.00,593.00 2502.00,592.00 2502.00,592.00
             2502.00,592.00 2503.00,599.00 2503.00,599.00
             2503.00,599.00 2522.00,598.00 2522.00,598.00
             2522.00,598.00 2547.00,598.00 2547.00,598.00
             2547.00,598.00 2565.00,597.00 2565.00,597.00
             2576.62,596.92 2576.62,591.42 2579.00,582.00 Z
           M 2735.00,513.00
           C 2735.00,513.00 2722.42,511.98 2722.42,511.98
             2722.42,511.98 2718.58,504.00 2718.58,504.00
             2718.58,504.00 2714.63,484.00 2714.63,484.00
             2714.63,484.00 2699.87,426.00 2699.87,426.00
             2699.87,426.00 2695.63,410.00 2695.63,410.00
             2695.63,410.00 2692.86,401.57 2692.86,401.57
             2692.86,401.57 2686.00,400.09 2686.00,400.09
             2686.00,400.09 2669.00,401.58 2669.00,401.58
             2669.00,401.58 2605.00,406.00 2605.00,406.00
             2605.00,406.00 2611.35,433.00 2611.35,433.00
             2611.35,433.00 2627.65,503.00 2627.65,503.00
             2627.65,503.00 2630.93,517.70 2630.93,517.70
             2630.78,520.54 2622.96,527.75 2629.31,534.78
             2633.79,539.73 2638.34,538.28 2644.00,537.88
             2644.00,537.88 2653.00,537.88 2653.00,537.88
             2653.00,537.88 2694.00,534.91 2694.00,534.91
             2694.00,534.91 2704.00,534.00 2704.00,534.00
             2708.34,533.93 2726.98,533.03 2729.72,531.07
             2733.48,528.38 2734.40,517.55 2735.00,513.00 Z
           M 2407.00,423.00
           C 2407.00,423.00 2364.00,425.91 2364.00,425.91
             2364.00,425.91 2324.00,429.00 2324.00,429.00
             2324.00,429.00 2326.85,455.00 2326.85,455.00
             2326.85,455.00 2333.28,507.00 2333.28,507.00
             2333.28,507.00 2336.69,534.98 2336.69,534.98
             2336.69,534.98 2331.60,542.30 2331.60,542.30
             2331.60,542.30 2330.00,553.00 2330.00,553.00
             2332.64,554.17 2336.33,556.23 2339.00,556.73
             2339.00,556.73 2364.00,555.17 2364.00,555.17
             2364.00,555.17 2388.00,553.96 2388.00,553.96
             2388.00,553.96 2398.00,553.01 2398.00,553.01
             2398.00,553.01 2413.00,552.01 2413.00,552.01
             2417.62,551.90 2422.82,552.46 2427.00,550.07
             2435.41,545.25 2433.04,540.70 2432.00,533.00
             2432.00,533.00 2421.00,533.00 2421.00,533.00
             2421.00,533.00 2421.00,521.00 2421.00,521.00
             2421.00,521.00 2414.42,472.00 2414.42,472.00
             2414.42,472.00 2407.00,423.00 2407.00,423.00 Z
           M 3118.00,480.04
           C 3118.83,482.92 3120.64,488.34 3123.39,489.92
             3124.88,490.81 3135.64,490.12 3138.00,489.92
             3141.67,489.55 3152.65,485.63 3156.00,483.82
             3156.00,483.82 3166.00,478.07 3166.00,478.07
             3170.59,476.15 3183.75,475.01 3189.00,475.00
             3193.09,474.99 3211.33,474.53 3213.87,475.60
             3218.45,477.52 3218.10,484.68 3226.00,484.61
             3232.71,484.55 3242.46,481.76 3249.00,479.83
             3252.40,479.11 3257.76,477.57 3260.89,479.83
             3266.05,483.03 3267.21,492.61 3269.33,498.00
             3269.33,498.00 3274.22,507.00 3274.22,507.00
             3274.22,507.00 3281.28,522.00 3281.28,522.00
             3282.51,524.86 3285.43,532.61 3287.49,534.40
             3290.08,536.64 3292.82,535.34 3297.00,537.00
             3297.00,537.00 3262.00,539.00 3262.00,539.00
             3262.00,539.00 3253.00,539.00 3253.00,539.00
             3253.00,539.00 3198.00,542.91 3198.00,542.91
             3198.00,542.91 3157.00,545.09 3157.00,545.09
             3157.00,545.09 3018.00,554.09 3018.00,554.09
             3018.00,554.09 2981.00,556.91 2981.00,556.91
             2981.00,556.91 2952.00,558.83 2952.00,558.83
             2952.00,558.83 2931.29,559.41 2931.29,559.41
             2931.29,559.41 2929.00,557.00 2929.00,557.00
             2929.00,557.00 2922.09,558.54 2922.09,558.54
             2922.09,558.54 2916.83,560.73 2916.83,560.73
             2910.99,562.02 2895.51,562.04 2889.00,562.00
             2887.17,561.99 2884.23,562.17 2882.72,561.01
             2881.08,559.73 2880.01,555.07 2879.33,553.00
             2879.33,553.00 2872.98,533.00 2872.98,533.00
             2872.98,533.00 2867.53,516.00 2867.53,516.00
             2866.80,513.72 2865.83,510.48 2867.53,508.51
             2870.47,505.36 2873.11,509.25 2879.00,508.51
             2879.00,508.51 2896.00,503.47 2896.00,503.47
             2900.89,502.54 2908.82,502.91 2912.94,500.11
             2921.84,494.08 2911.38,486.43 2919.13,480.18
             2920.41,479.15 2922.29,477.98 2923.98,477.94
             2927.39,477.86 2929.04,481.24 2929.94,484.00
             2932.57,492.03 2928.03,501.68 2937.00,502.44
             2950.63,503.59 2957.22,491.32 2964.00,488.74
             2966.11,487.93 2968.76,488.01 2971.00,488.00
             2981.60,487.95 2986.22,488.05 2997.00,486.72
             3004.12,485.84 3015.26,483.51 3021.80,485.00
             3021.80,486.66 3021.32,489.42 3021.80,491.00
             3023.06,499.12 3034.21,496.81 3040.00,495.62
             3049.29,493.72 3067.22,483.45 3070.00,482.55
             3076.16,480.56 3089.18,481.08 3096.00,481.00
             3096.00,481.00 3106.00,480.04 3106.00,480.04
             3106.00,480.04 3118.00,480.04 3118.00,480.04 Z
           M 2108.00,548.00
           C 2108.00,548.00 2131.00,547.00 2131.00,547.00
             2131.00,547.00 2143.00,546.04 2143.00,546.04
             2143.00,546.04 2158.00,546.04 2158.00,546.04
             2158.00,546.04 2171.00,545.06 2171.00,545.06
             2178.96,545.65 2185.91,558.51 2195.00,549.00
             2195.00,549.00 2202.00,552.00 2202.00,552.00
             2202.00,552.00 2203.00,568.00 2203.00,568.00
             2203.00,568.00 2204.00,604.00 2204.00,604.00
             2204.00,604.00 2174.00,605.91 2174.00,605.91
             2174.00,605.91 2129.00,609.00 2129.00,609.00
             2129.00,609.00 2120.00,609.00 2120.00,609.00
             2120.00,609.00 2022.00,615.91 2022.00,615.91
             2022.00,615.91 1967.00,619.09 1967.00,619.09
             1967.00,619.09 1930.00,622.00 1930.00,622.00
             1930.00,622.00 1921.00,622.00 1921.00,622.00
             1921.00,622.00 1891.00,624.00 1891.00,624.00
             1891.00,624.00 1888.84,595.00 1888.84,595.00
             1888.84,595.00 1887.00,576.00 1887.00,576.00
             1887.00,576.00 1887.00,566.00 1887.00,566.00
             1894.14,570.56 1895.40,571.18 1904.00,570.99
             1907.19,570.91 1913.05,570.62 1914.98,567.69
             1916.38,565.55 1916.00,559.68 1916.00,557.00
             1924.66,555.86 1927.46,556.01 1936.00,556.00
             1936.00,556.00 1948.00,555.04 1948.00,555.04
             1948.00,555.04 1961.00,555.04 1961.00,555.04
             1961.00,555.04 1977.00,554.00 1977.00,554.00
             1985.90,553.99 1988.15,553.02 1989.00,563.00
             1989.00,563.00 1999.00,563.68 1999.00,563.68
             1999.00,563.68 2009.00,563.00 2009.00,563.00
             2009.31,560.62 2009.74,554.48 2011.60,553.02
             2013.10,551.84 2016.14,552.05 2018.00,551.91
             2018.00,551.91 2034.00,551.00 2034.00,551.00
             2034.00,551.00 2046.00,550.04 2046.00,550.04
             2046.00,550.04 2057.00,550.04 2057.00,550.04
             2057.00,550.04 2072.00,549.00 2072.00,549.00
             2074.88,549.00 2081.30,548.56 2083.61,550.02
             2086.04,551.56 2089.03,558.94 2096.42,558.98
             2102.54,559.02 2106.10,552.97 2108.00,548.00 Z
           M 3210.00,754.00
           C 3210.00,754.00 3203.80,737.00 3203.80,737.00
             3203.80,737.00 3190.42,705.00 3190.42,705.00
             3190.42,705.00 3153.85,617.00 3153.85,617.00
             3153.85,617.00 3142.20,589.00 3142.20,589.00
             3142.20,589.00 3136.51,578.06 3136.51,578.06
             3136.51,578.06 3120.00,578.06 3120.00,578.06
             3120.00,578.06 3106.00,579.00 3106.00,579.00
             3106.00,579.00 3060.00,581.00 3060.00,581.00
             3060.00,581.00 3045.00,582.00 3045.00,582.00
             3045.00,582.00 3026.00,583.00 3026.00,583.00
             3026.00,583.00 2995.00,584.00 2995.00,584.00
             2995.00,584.00 3010.66,630.00 3010.66,630.00
             3010.66,630.00 3040.05,713.00 3040.05,713.00
             3040.05,713.00 3057.00,761.00 3057.00,761.00
             3057.00,761.00 3076.00,760.00 3076.00,760.00
             3076.00,760.00 3105.00,759.00 3105.00,759.00
             3105.00,759.00 3118.00,758.00 3118.00,758.00
             3118.00,758.00 3144.00,757.00 3144.00,757.00
             3144.00,757.00 3161.00,756.00 3161.00,756.00
             3161.00,756.00 3210.00,754.00 3210.00,754.00 Z
           M 2921.00,770.00
           C 2921.00,770.00 2903.33,715.00 2903.33,715.00
             2903.33,715.00 2877.33,635.00 2877.33,635.00
             2877.33,635.00 2868.67,608.00 2868.67,608.00
             2868.67,608.00 2864.16,596.60 2864.16,596.60
             2864.16,596.60 2856.00,595.01 2856.00,595.01
             2856.00,595.01 2840.00,596.00 2840.00,596.00
             2840.00,596.00 2830.00,596.91 2830.00,596.91
             2830.00,596.91 2807.00,598.00 2807.00,598.00
             2807.00,598.00 2796.00,598.96 2796.00,598.96
             2796.00,598.96 2755.00,601.09 2755.00,601.09
             2755.00,601.09 2727.00,603.00 2727.00,603.00
             2727.00,603.00 2738.63,649.00 2738.63,649.00
             2738.63,649.00 2758.88,727.00 2758.88,727.00
             2758.88,727.00 2772.00,777.00 2772.00,777.00
             2772.00,777.00 2818.00,775.00 2818.00,775.00
             2818.00,775.00 2828.00,774.04 2828.00,774.04
             2828.00,774.04 2837.00,774.04 2837.00,774.04
             2837.00,774.04 2856.00,773.00 2856.00,773.00
             2856.00,773.00 2872.00,772.00 2872.00,772.00
             2872.00,772.00 2890.00,771.00 2890.00,771.00
             2890.00,771.00 2921.00,770.00 2921.00,770.00 Z
           M 2738.00,778.00
           C 2738.00,778.00 2727.37,734.00 2727.37,734.00
             2727.37,734.00 2706.37,650.00 2706.37,650.00
             2706.37,650.00 2698.37,618.00 2698.37,618.00
             2697.70,615.31 2696.29,607.56 2694.28,605.99
             2692.30,604.45 2687.37,605.11 2685.00,605.42
             2685.00,605.42 2666.00,606.83 2666.00,606.83
             2666.00,606.83 2641.00,608.09 2641.00,608.09
             2641.00,608.09 2603.00,610.91 2603.00,610.91
             2603.00,610.91 2589.00,611.72 2589.00,611.72
             2589.00,611.72 2567.00,613.00 2567.00,613.00
             2564.52,613.02 2559.80,612.63 2558.66,615.43
             2557.88,617.36 2559.91,625.56 2560.40,628.00
             2560.40,628.00 2567.20,660.00 2567.20,660.00
             2567.20,660.00 2593.00,783.96 2593.00,783.96
             2593.00,783.96 2605.00,783.96 2605.00,783.96
             2605.00,783.96 2617.00,782.96 2617.00,782.96
             2617.00,782.96 2631.00,782.96 2631.00,782.96
             2631.00,782.96 2643.00,782.00 2643.00,782.00
             2643.00,782.00 2703.00,780.00 2703.00,780.00
             2703.00,780.00 2719.00,779.00 2719.00,779.00
             2719.00,779.00 2738.00,778.00 2738.00,778.00 Z
           M 2559.00,787.96
           C 2559.00,787.96 2550.42,742.00 2550.42,742.00
             2550.42,742.00 2534.00,655.00 2534.00,655.00
             2534.00,655.00 2528.75,627.00 2528.75,627.00
             2528.75,627.00 2525.42,616.02 2525.42,616.02
             2525.42,616.02 2517.00,615.00 2517.00,615.00
             2517.00,615.00 2497.00,616.00 2497.00,616.00
             2497.00,616.00 2483.00,617.00 2483.00,617.00
             2483.00,617.00 2457.00,618.00 2457.00,618.00
             2457.00,618.00 2440.00,619.00 2440.00,619.00
             2440.00,619.00 2422.00,620.00 2422.00,620.00
             2422.00,620.00 2394.00,621.00 2394.00,621.00
             2394.00,621.00 2398.13,651.00 2398.13,651.00
             2398.13,651.00 2407.28,719.00 2407.28,719.00
             2407.28,719.00 2417.00,794.00 2417.00,794.00
             2417.00,794.00 2447.00,792.00 2447.00,792.00
             2447.00,792.00 2470.00,791.00 2470.00,791.00
             2470.00,791.00 2485.00,790.00 2485.00,790.00
             2485.00,790.00 2503.00,789.00 2503.00,789.00
             2503.00,789.00 2526.00,788.00 2526.00,788.00
             2526.00,788.00 2537.00,787.04 2537.00,787.04
             2537.00,787.04 2549.00,787.96 2549.00,787.96
             2549.00,787.96 2559.00,787.96 2559.00,787.96 Z
           M 2245.00,800.00
           C 2245.00,800.00 2259.00,800.00 2259.00,800.00
             2259.00,800.00 2274.00,799.00 2274.00,799.00
             2274.00,799.00 2288.00,799.00 2288.00,799.00
             2288.00,799.00 2303.00,798.00 2303.00,798.00
             2303.00,798.00 2347.00,797.00 2347.00,797.00
             2347.00,797.00 2362.00,796.00 2362.00,796.00
             2362.00,796.00 2376.00,796.00 2376.00,796.00
             2376.00,796.00 2383.91,794.40 2383.91,794.40
             2383.91,794.40 2383.91,782.00 2383.91,782.00
             2383.91,782.00 2380.07,750.00 2380.07,750.00
             2380.07,750.00 2369.15,657.00 2369.15,657.00
             2369.15,657.00 2366.28,633.00 2366.28,633.00
             2366.28,633.00 2364.26,624.99 2364.26,624.99
             2364.26,624.99 2358.00,624.09 2358.00,624.09
             2358.00,624.09 2343.00,625.00 2343.00,625.00
             2343.00,625.00 2323.00,626.00 2323.00,626.00
             2323.00,626.00 2305.00,627.00 2305.00,627.00
             2305.00,627.00 2288.00,628.00 2288.00,628.00
             2288.00,628.00 2272.00,629.00 2272.00,629.00
             2272.00,629.00 2250.00,630.00 2250.00,630.00
             2250.00,630.00 2233.00,631.00 2233.00,631.00
             2233.00,631.00 2233.91,643.00 2233.91,643.00
             2233.91,643.00 2235.91,670.00 2235.91,670.00
             2235.91,670.00 2242.09,760.00 2242.09,760.00
             2242.09,760.00 2244.09,788.00 2244.09,788.00
             2244.09,788.00 2245.00,800.00 2245.00,800.00 Z
           M 2116.00,639.00
           C 2116.00,639.00 2101.00,640.00 2101.00,640.00
             2101.00,640.00 2076.00,641.00 2076.00,641.00
             2076.00,641.00 2060.00,642.00 2060.00,642.00
             2060.00,642.00 2017.00,644.00 2017.00,644.00
             2017.00,644.00 2007.00,644.96 2007.00,644.96
             2007.00,644.96 1997.00,644.96 1997.00,644.96
             1997.00,644.96 1989.99,646.74 1989.99,646.74
             1989.99,646.74 1989.00,654.00 1989.00,654.00
             1989.00,654.00 1989.00,673.00 1989.00,673.00
             1989.00,673.00 1988.00,690.00 1988.00,690.00
             1988.00,690.00 1986.00,791.00 1986.00,791.00
             1986.00,791.00 1985.00,814.00 1985.00,814.00
             1985.00,814.00 2003.00,813.00 2003.00,813.00
             2003.00,813.00 2061.00,811.00 2061.00,811.00
             2061.00,811.00 2076.00,809.96 2076.00,809.96
             2076.00,809.96 2091.00,809.96 2091.00,809.96
             2091.00,809.96 2103.00,809.00 2103.00,809.00
             2103.00,809.00 2121.96,808.00 2121.96,808.00
             2121.96,808.00 2121.96,794.00 2121.96,794.00
             2121.96,794.00 2121.00,782.00 2121.00,782.00
             2121.00,782.00 2119.00,710.00 2119.00,710.00
             2119.00,710.00 2118.00,693.00 2118.00,693.00
             2118.00,693.00 2118.00,679.00 2118.00,679.00
             2118.00,679.00 2117.00,663.00 2117.00,663.00
             2117.00,663.00 2116.00,639.00 2116.00,639.00 Z
           M 2606.00,804.00
           C 2597.14,807.32 2599.31,805.05 2592.00,805.51
             2592.00,805.51 2584.00,806.05 2584.00,806.05
             2584.00,806.05 2577.00,807.18 2577.00,807.18
             2577.00,807.18 2571.00,806.63 2571.00,806.63
             2571.00,806.63 2562.04,807.97 2562.04,807.97
             2558.82,808.52 2557.87,807.40 2556.00,807.97
             2554.37,808.17 2553.08,809.80 2549.00,811.00
             2549.00,811.00 2554.00,840.00 2554.00,840.00
             2554.00,840.00 2575.00,841.00 2575.00,841.00
             2584.63,840.98 2582.33,839.61 2586.28,839.11
             2589.37,838.72 2591.71,840.28 2595.00,840.15
             2602.56,840.36 2600.44,837.25 2612.00,840.15
             2615.09,836.62 2615.44,836.25 2620.00,837.00
             2620.00,837.00 2617.08,818.00 2617.08,818.00
             2617.08,818.00 2614.99,809.31 2614.99,809.31
             2614.99,809.31 2606.00,804.00 2606.00,804.00 Z
           M 3184.00,840.00
           C 3182.70,834.33 3180.39,834.81 3175.00,835.04
             3175.00,835.04 3166.00,835.98 3166.00,835.98
             3166.00,835.98 3149.00,835.98 3149.00,835.98
             3149.00,835.98 3150.00,843.00 3150.00,843.00
             3150.00,843.00 3128.00,844.00 3128.00,844.00
             3128.00,844.00 3080.00,846.00 3080.00,846.00
             3080.21,850.36 3083.98,865.47 3086.84,868.40
             3089.98,871.62 3094.68,868.29 3097.89,875.05
             3097.89,875.05 3103.69,891.00 3103.69,891.00
             3103.69,891.00 3113.95,919.00 3113.95,919.00
             3113.95,919.00 3121.00,938.00 3121.00,938.00
             3121.00,938.00 3113.00,939.00 3113.00,939.00
             3113.00,939.00 3120.00,963.00 3120.00,963.00
             3120.00,963.00 3129.00,962.00 3129.00,962.00
             3129.00,962.00 3139.95,992.00 3139.95,992.00
             3139.95,992.00 3156.00,1034.00 3156.00,1034.00
             3156.00,1034.00 3147.00,1034.00 3147.00,1034.00
             3147.00,1034.00 3152.66,1051.00 3152.66,1051.00
             3152.66,1051.00 3156.65,1059.01 3156.65,1059.01
             3156.65,1059.01 3164.00,1060.00 3164.00,1060.00
             3164.00,1060.00 3198.00,1060.00 3198.00,1060.00
             3198.00,1060.00 3215.00,1059.00 3215.00,1059.00
             3215.00,1059.00 3238.00,1058.00 3238.00,1058.00
             3238.00,1058.00 3268.00,1057.00 3268.00,1057.00
             3268.00,1057.00 3278.00,1056.04 3278.00,1056.04
             3278.00,1056.04 3291.00,1056.04 3291.00,1056.04
             3291.00,1056.04 3306.00,1055.00 3306.00,1055.00
             3306.00,1055.00 3327.00,1054.00 3327.00,1054.00
             3327.00,1054.00 3346.00,1053.00 3346.00,1053.00
             3346.00,1053.00 3339.00,1034.00 3339.00,1034.00
             3339.00,1034.00 3335.30,1027.00 3335.30,1027.00
             3335.30,1027.00 3328.00,1027.00 3328.00,1027.00
             3328.00,1027.00 3300.00,955.00 3300.00,955.00
             3300.00,955.00 3306.00,955.00 3306.00,955.00
             3306.00,955.00 3299.58,936.00 3299.58,936.00
             3299.58,936.00 3295.59,929.79 3295.59,929.79
             3295.59,929.79 3285.00,929.79 3285.00,929.79
             3285.00,929.79 3278.20,911.00 3278.20,911.00
             3278.20,911.00 3260.00,863.00 3260.00,863.00
             3260.00,863.00 3268.00,862.00 3268.00,862.00
             3268.00,862.00 3261.20,846.00 3261.20,846.00
             3261.20,846.00 3257.35,838.99 3257.35,838.99
             3257.35,838.99 3250.00,838.04 3250.00,838.04
             3250.00,838.04 3238.00,838.04 3238.00,838.04
             3238.00,838.04 3227.00,839.00 3227.00,839.00
             3227.00,839.00 3203.00,839.00 3203.00,839.00
             3203.00,839.00 3184.00,840.00 3184.00,840.00 Z
           M 2885.00,849.00
           C 2885.00,849.00 2852.00,850.00 2852.00,850.00
             2852.00,850.00 2853.00,857.00 2853.00,857.00
             2853.00,857.00 2812.00,858.00 2812.00,858.00
             2812.00,858.00 2800.00,858.96 2800.00,858.96
             2800.00,858.96 2785.00,858.96 2785.00,858.96
             2785.45,862.36 2787.68,878.57 2789.17,880.43
             2791.75,883.62 2796.16,879.85 2798.74,886.06
             2798.74,886.06 2802.88,902.00 2802.88,902.00
             2802.88,902.00 2815.00,948.00 2815.00,948.00
             2815.00,948.00 2806.00,949.00 2806.00,949.00
             2806.00,949.00 2811.28,966.00 2811.28,966.00
             2811.28,966.00 2814.51,972.97 2814.51,972.97
             2814.51,972.97 2821.00,972.97 2821.00,972.97
             2821.00,972.97 2840.00,1043.00 2840.00,1043.00
             2840.00,1043.00 2834.19,1044.74 2834.19,1044.74
             2834.19,1044.74 2834.19,1052.00 2834.19,1052.00
             2834.19,1052.00 2838.00,1070.00 2838.00,1070.00
             2838.00,1070.00 2877.00,1070.00 2877.00,1070.00
             2877.00,1070.00 2889.00,1069.04 2889.00,1069.04
             2889.00,1069.04 2906.00,1069.04 2906.00,1069.04
             2906.00,1069.04 2921.00,1068.00 2921.00,1068.00
             2921.00,1068.00 2935.00,1068.00 2935.00,1068.00
             2935.00,1068.00 2951.00,1067.00 2951.00,1067.00
             2951.00,1067.00 2965.00,1067.00 2965.00,1067.00
             2965.00,1067.00 2980.00,1066.00 2980.00,1066.00
             2980.00,1066.00 3021.00,1065.00 3021.00,1065.00
             3021.00,1065.00 3015.00,1036.00 3015.00,1036.00
             3004.53,1038.51 3004.88,1033.06 3001.14,1020.00
             3001.14,1020.00 2985.00,966.00 2985.00,966.00
             2985.00,966.00 2991.00,966.00 2991.00,966.00
             2991.00,966.00 2986.00,943.00 2986.00,943.00
             2974.29,942.45 2975.52,939.64 2970.98,925.00
             2970.98,925.00 2955.00,875.00 2955.00,875.00
             2955.00,875.00 2963.00,875.00 2963.00,875.00
             2962.28,871.41 2958.93,856.85 2956.44,855.02
             2954.73,853.77 2951.09,854.00 2949.00,854.00
             2949.00,854.00 2933.00,854.00 2933.00,854.00
             2933.00,854.00 2917.00,855.00 2917.00,855.00
             2917.00,855.00 2884.00,855.00 2884.00,855.00
             2884.00,855.00 2885.00,849.00 2885.00,849.00 Z
           M 2699.00,857.00
           C 2699.00,857.00 2682.00,857.00 2682.00,857.00
             2682.00,857.00 2668.00,858.00 2668.00,858.00
             2668.00,858.00 2669.00,865.00 2669.00,865.00
             2669.00,865.00 2652.00,865.00 2652.00,865.00
             2652.00,865.00 2640.00,865.96 2640.00,865.96
             2640.00,865.96 2627.00,865.96 2627.00,865.96
             2627.00,865.96 2611.00,867.00 2611.00,867.00
             2611.00,867.00 2601.00,868.00 2601.00,868.00
             2601.57,871.12 2603.81,886.91 2605.02,888.40
             2607.41,891.36 2611.68,888.31 2613.85,894.06
             2613.85,894.06 2618.42,918.00 2618.42,918.00
             2618.42,918.00 2625.00,956.00 2625.00,956.00
             2625.00,956.00 2618.00,957.00 2618.00,957.00
             2618.00,957.00 2622.00,982.00 2622.00,982.00
             2622.00,982.00 2632.00,981.00 2632.00,981.00
             2632.00,981.00 2637.60,1013.00 2637.60,1013.00
             2637.60,1013.00 2645.00,1050.00 2645.00,1050.00
             2645.00,1050.00 2637.00,1050.00 2637.00,1050.00
             2637.00,1050.00 2641.00,1077.00 2641.00,1077.00
             2641.00,1077.00 2678.00,1076.00 2678.00,1076.00
             2678.00,1076.00 2690.00,1075.04 2690.00,1075.04
             2690.00,1075.04 2702.00,1075.04 2702.00,1075.04
             2702.00,1075.04 2714.00,1074.04 2714.00,1074.04
             2714.00,1074.04 2726.00,1074.04 2726.00,1074.04
             2726.00,1074.04 2741.00,1072.96 2741.00,1072.96
             2741.00,1072.96 2754.00,1072.96 2754.00,1072.96
             2754.00,1072.96 2766.00,1071.96 2766.00,1071.96
             2766.00,1071.96 2778.00,1071.96 2778.00,1071.96
             2778.00,1071.96 2790.00,1071.00 2790.00,1071.00
             2790.00,1071.00 2820.00,1070.00 2820.00,1070.00
             2820.00,1070.00 2815.00,1044.00 2815.00,1044.00
             2815.00,1044.00 2805.00,1044.00 2805.00,1044.00
             2805.00,1044.00 2802.42,1032.00 2802.42,1032.00
             2802.42,1032.00 2789.00,974.00 2789.00,974.00
             2789.00,974.00 2796.00,974.00 2796.00,974.00
             2796.00,974.00 2791.00,948.90 2791.00,948.90
             2789.14,949.08 2784.94,949.64 2783.43,948.90
             2780.78,947.34 2778.67,935.32 2777.88,932.00
             2777.88,932.00 2766.00,883.00 2766.00,883.00
             2766.00,883.00 2773.00,883.00 2773.00,883.00
             2773.00,883.00 2769.00,860.00 2769.00,860.00
             2769.00,860.00 2754.00,861.00 2754.00,861.00
             2754.00,861.00 2732.00,862.00 2732.00,862.00
             2732.00,862.00 2699.00,863.00 2699.00,863.00
             2699.00,863.00 2699.00,857.00 2699.00,857.00 Z
           M 2516.00,865.00
           C 2516.00,865.00 2494.00,866.00 2494.00,866.00
             2494.00,866.00 2487.64,867.02 2487.64,867.02
             2487.64,867.02 2487.00,873.00 2487.00,873.00
             2487.00,873.00 2447.00,874.00 2447.00,874.00
             2447.00,874.00 2435.00,874.96 2435.00,874.96
             2435.00,874.96 2421.00,874.96 2421.00,874.96
             2421.00,874.96 2423.00,897.00 2423.00,897.00
             2423.00,897.00 2431.00,897.00 2431.00,897.00
             2431.00,897.00 2440.00,963.00 2440.00,963.00
             2440.00,963.00 2432.00,964.00 2432.00,964.00
             2432.00,964.00 2435.00,989.00 2435.00,989.00
             2435.00,989.00 2443.00,988.00 2443.00,988.00
             2443.00,988.00 2453.00,1056.00 2453.00,1056.00
             2453.00,1056.00 2446.00,1055.00 2446.00,1055.00
             2446.00,1055.00 2449.00,1082.00 2449.00,1082.00
             2449.00,1082.00 2469.00,1081.00 2469.00,1081.00
             2469.00,1081.00 2483.00,1081.00 2483.00,1081.00
             2483.00,1081.00 2500.00,1080.00 2500.00,1080.00
             2500.00,1080.00 2572.00,1078.00 2572.00,1078.00
             2572.00,1078.00 2584.00,1077.04 2584.00,1077.04
             2584.00,1077.04 2600.00,1077.04 2600.00,1077.04
             2600.00,1077.04 2615.00,1076.00 2615.00,1076.00
             2615.00,1076.00 2624.00,1076.00 2624.00,1076.00
             2624.00,1076.00 2618.00,1050.00 2618.00,1050.00
             2618.00,1050.00 2609.00,1050.00 2609.00,1050.00
             2609.00,1050.00 2604.25,1021.00 2604.25,1021.00
             2604.25,1021.00 2597.00,982.00 2597.00,982.00
             2597.00,982.00 2604.14,980.26 2604.14,980.26
             2604.14,980.26 2604.14,973.00 2604.14,973.00
             2604.14,973.00 2602.00,957.00 2602.00,957.00
             2602.00,957.00 2592.00,957.00 2592.00,957.00
             2592.00,957.00 2581.00,890.00 2581.00,890.00
             2581.00,890.00 2587.00,890.00 2587.00,890.00
             2587.00,890.00 2585.27,876.00 2585.27,876.00
             2585.27,876.00 2583.26,869.99 2583.26,869.99
             2583.26,869.99 2576.00,869.00 2576.00,869.00
             2576.00,869.00 2559.00,870.00 2559.00,870.00
             2559.00,870.00 2533.00,871.00 2533.00,871.00
             2533.00,871.00 2516.00,872.00 2516.00,872.00
             2516.00,872.00 2516.00,865.00 2516.00,865.00 Z
           M 2405.00,876.00
           C 2405.00,876.00 2385.00,877.00 2385.00,877.00
             2385.00,877.00 2355.00,878.00 2355.00,878.00
             2355.00,878.00 2344.04,878.82 2344.04,878.82
             2344.04,878.82 2335.87,873.16 2335.87,873.16
             2335.87,873.16 2309.00,873.16 2309.00,873.16
             2309.00,873.16 2311.00,880.00 2311.00,880.00
             2311.00,880.00 2289.00,880.00 2289.00,880.00
             2289.00,880.00 2272.00,881.00 2272.00,881.00
             2272.00,881.00 2245.00,881.00 2245.00,881.00
             2245.00,881.00 2246.00,904.00 2246.00,904.00
             2246.00,904.00 2254.00,904.00 2254.00,904.00
             2254.00,904.00 2258.00,969.00 2258.00,969.00
             2258.00,969.00 2251.00,969.00 2251.00,969.00
             2251.00,969.00 2253.00,995.00 2253.00,995.00
             2253.00,995.00 2260.00,994.00 2260.00,994.00
             2260.00,994.00 2260.91,1004.00 2260.91,1004.00
             2260.91,1004.00 2262.91,1033.00 2262.91,1033.00
             2262.91,1033.00 2265.00,1061.00 2265.00,1061.00
             2254.89,1061.26 2256.63,1064.41 2257.83,1077.00
             2258.07,1079.51 2257.67,1084.51 2259.17,1086.43
             2261.10,1088.88 2272.68,1088.04 2276.00,1088.00
             2276.00,1088.00 2291.00,1087.00 2291.00,1087.00
             2291.00,1087.00 2327.00,1086.00 2327.00,1086.00
             2327.00,1086.00 2343.00,1084.96 2343.00,1084.96
             2343.00,1084.96 2357.00,1084.96 2357.00,1084.96
             2357.00,1084.96 2369.00,1083.96 2369.00,1083.96
             2369.00,1083.96 2382.00,1083.96 2382.00,1083.96
             2382.00,1083.96 2394.00,1083.00 2394.00,1083.00
             2394.00,1083.00 2431.00,1082.00 2431.00,1082.00
             2431.00,1082.00 2430.00,1064.00 2430.00,1064.00
             2429.99,1062.10 2430.15,1059.14 2428.98,1057.56
             2427.22,1055.19 2422.67,1055.13 2420.00,1055.00
             2420.00,1055.00 2416.16,1021.00 2416.16,1021.00
             2416.16,1021.00 2412.00,986.00 2412.00,986.00
             2412.00,986.00 2420.00,987.00 2420.00,987.00
             2420.00,987.00 2417.00,963.00 2417.00,963.00
             2417.00,963.00 2408.00,963.00 2408.00,963.00
             2408.00,963.00 2406.16,945.00 2406.16,945.00
             2406.16,945.00 2401.00,896.00 2401.00,896.00
             2401.00,896.00 2406.00,896.00 2406.00,896.00
             2406.00,896.00 2405.00,876.00 2405.00,876.00 Z
           M 2069.00,885.00
           C 2069.00,885.00 2049.00,885.00 2049.00,885.00
             2049.00,885.00 2041.57,886.17 2041.57,886.17
             2041.57,886.17 2040.00,891.00 2040.00,891.00
             2040.00,891.00 2019.00,892.00 2019.00,892.00
             2019.00,892.00 1991.00,892.00 1991.00,892.00
             1976.14,892.00 1975.06,890.80 1975.00,900.00
             1975.00,900.00 1975.00,916.00 1975.00,916.00
             1975.00,916.00 1982.00,915.00 1982.00,915.00
             1982.00,915.00 1982.00,959.00 1982.00,959.00
             1981.99,962.44 1981.41,977.29 1979.40,979.26
             1977.72,980.91 1975.18,980.87 1973.00,981.00
             1973.00,981.00 1974.00,1004.00 1974.00,1004.00
             1974.00,1004.00 1981.00,1004.00 1981.00,1004.00
             1981.00,1004.00 1980.00,1022.00 1980.00,1022.00
             1980.00,1022.00 1980.00,1070.00 1980.00,1070.00
             1980.00,1070.00 1972.00,1070.00 1972.00,1070.00
             1972.00,1070.00 1972.00,1096.00 1972.00,1096.00
             1972.00,1096.00 1986.00,1096.00 1986.00,1096.00
             1986.00,1096.00 2001.00,1095.00 2001.00,1095.00
             2001.00,1095.00 2023.00,1095.00 2023.00,1095.00
             2023.00,1095.00 2039.00,1094.00 2039.00,1094.00
             2039.00,1094.00 2101.00,1093.00 2101.00,1093.00
             2101.00,1093.00 2116.00,1092.00 2116.00,1092.00
             2116.00,1092.00 2139.00,1092.00 2139.00,1092.00
             2139.00,1092.00 2139.00,1065.00 2139.00,1065.00
             2139.00,1065.00 2130.96,1066.00 2130.96,1066.00
             2130.96,1066.00 2130.96,1051.00 2130.96,1051.00
             2130.96,1051.00 2130.00,1039.00 2130.00,1039.00
             2130.00,1039.00 2129.00,998.00 2129.00,998.00
             2129.00,998.00 2136.00,998.00 2136.00,998.00
             2136.00,998.00 2136.00,984.00 2136.00,984.00
             2136.00,984.00 2134.26,975.99 2134.26,975.99
             2134.26,975.99 2128.00,975.00 2128.00,975.00
             2128.00,975.00 2128.00,949.00 2128.00,949.00
             2128.00,949.00 2127.00,934.00 2127.00,934.00
             2127.00,934.00 2127.00,919.00 2127.00,919.00
             2127.01,913.15 2126.34,910.12 2133.00,909.00
             2133.00,909.00 2133.00,888.00 2133.00,888.00
             2133.00,888.00 2121.00,888.00 2121.00,888.00
             2121.00,888.00 2102.00,889.00 2102.00,889.00
             2102.00,889.00 2083.00,890.00 2083.00,890.00
             2083.00,890.00 2069.00,891.00 2069.00,891.00
             2069.00,891.00 2069.00,885.00 2069.00,885.00 Z
           M 2807.00,1090.00
           C 2807.00,1090.00 2781.00,1091.00 2781.00,1091.00
             2781.00,1091.00 2766.00,1092.00 2766.00,1092.00
             2766.00,1092.00 2748.00,1092.00 2748.00,1092.00
             2748.00,1092.00 2731.00,1093.00 2731.00,1093.00
             2731.00,1093.00 2714.00,1093.00 2714.00,1093.00
             2714.00,1093.00 2698.00,1094.00 2698.00,1094.00
             2698.00,1094.00 2682.00,1094.00 2682.00,1094.00
             2682.00,1094.00 2666.00,1095.00 2666.00,1095.00
             2666.00,1095.00 2648.00,1095.00 2648.00,1095.00
             2648.00,1095.00 2633.00,1096.00 2633.00,1096.00
             2633.00,1096.00 2617.00,1096.00 2617.00,1096.00
             2617.00,1096.00 2601.00,1097.00 2601.00,1097.00
             2601.00,1097.00 2552.00,1098.00 2552.00,1098.00
             2552.00,1098.00 2535.00,1099.00 2535.00,1099.00
             2535.00,1099.00 2519.00,1099.00 2519.00,1099.00
             2519.00,1099.00 2503.00,1100.00 2503.00,1100.00
             2503.00,1100.00 2485.00,1100.00 2485.00,1100.00
             2485.00,1100.00 2465.00,1101.00 2465.00,1101.00
             2465.00,1101.00 2470.16,1144.00 2470.16,1144.00
             2470.16,1144.00 2472.00,1160.00 2472.00,1160.00
             2472.00,1160.00 2595.00,1158.00 2595.00,1158.00
             2595.00,1158.00 2612.00,1157.00 2612.00,1157.00
             2612.00,1157.00 2639.00,1157.00 2639.00,1157.00
             2639.00,1157.00 2656.00,1156.00 2656.00,1156.00
             2656.00,1156.00 2685.00,1156.00 2685.00,1156.00
             2685.00,1156.00 2702.00,1155.00 2702.00,1155.00
             2702.00,1155.00 2729.00,1155.00 2729.00,1155.00
             2729.00,1155.00 2746.00,1154.00 2746.00,1154.00
             2746.00,1154.00 2820.00,1153.00 2820.00,1153.00
             2820.00,1153.00 2807.00,1090.00 2807.00,1090.00 Z
           M 3403.00,1187.00
           C 3401.64,1179.49 3397.61,1172.77 3394.25,1166.00
             3392.93,1163.34 3391.27,1158.84 3388.73,1157.31
             3386.13,1155.75 3381.03,1155.97 3378.00,1156.00
             3378.00,1156.00 3360.00,1158.00 3360.00,1158.00
             3360.00,1158.00 3322.00,1159.00 3322.00,1159.00
             3322.00,1159.00 3307.00,1160.04 3307.00,1160.04
             3307.00,1160.04 3293.00,1160.04 3293.00,1160.04
             3293.00,1160.04 3281.00,1161.00 3281.00,1161.00
             3281.00,1161.00 3217.00,1163.00 3217.00,1163.00
             3217.00,1163.00 3205.00,1163.96 3205.00,1163.96
             3205.00,1163.96 3193.00,1163.96 3193.00,1163.96
             3193.00,1163.96 3202.22,1189.69 3202.22,1189.69
             3202.22,1189.69 3211.35,1193.60 3211.35,1193.60
             3211.35,1193.60 3219.66,1214.00 3219.66,1214.00
             3219.66,1214.00 3262.31,1333.00 3262.31,1333.00
             3262.31,1333.00 3276.31,1372.00 3276.31,1372.00
             3276.31,1372.00 3285.00,1396.00 3285.00,1396.00
             3285.00,1396.00 3277.00,1396.00 3277.00,1396.00
             3277.00,1396.00 3287.00,1430.00 3287.00,1430.00
             3287.00,1430.00 3306.00,1430.00 3306.00,1430.00
             3306.00,1430.00 3319.96,1430.85 3319.96,1430.85
             3326.13,1429.97 3322.36,1427.02 3334.00,1427.00
             3334.00,1427.00 3378.00,1427.00 3378.00,1427.00
             3378.00,1427.00 3395.00,1426.00 3395.00,1426.00
             3395.00,1426.00 3447.00,1426.00 3447.00,1426.00
             3447.00,1426.00 3466.00,1425.00 3466.00,1425.00
             3473.09,1425.10 3473.20,1426.44 3477.00,1426.70
             3477.00,1426.70 3503.00,1426.00 3503.00,1426.00
             3503.00,1426.00 3488.79,1394.31 3488.79,1394.31
             3484.92,1389.35 3479.82,1395.23 3476.05,1387.94
             3476.05,1387.94 3451.58,1328.00 3451.58,1328.00
             3451.58,1328.00 3394.00,1187.00 3394.00,1187.00
             3394.00,1187.00 3403.00,1187.00 3403.00,1187.00 Z
           M 3055.00,1167.00
           C 3055.00,1167.00 3000.00,1168.00 3000.00,1168.00
             3000.00,1168.00 2985.00,1169.00 2985.00,1169.00
             2985.00,1169.00 2966.00,1169.00 2966.00,1169.00
             2966.00,1169.00 2949.00,1170.00 2949.00,1170.00
             2949.00,1170.00 2932.00,1170.00 2932.00,1170.00
             2932.00,1170.00 2916.00,1171.00 2916.00,1171.00
             2916.00,1171.00 2864.00,1172.00 2864.00,1172.00
             2864.00,1172.00 2871.00,1199.00 2871.00,1199.00
             2874.00,1199.04 2877.05,1198.72 2879.15,1201.31
             2880.86,1203.43 2882.61,1211.95 2883.37,1215.00
             2883.37,1215.00 2891.58,1246.00 2891.58,1246.00
             2891.58,1246.00 2901.88,1286.00 2901.88,1286.00
             2901.88,1286.00 2920.12,1355.00 2920.12,1355.00
             2920.12,1355.00 2932.00,1400.00 2932.00,1400.00
             2932.00,1400.00 2924.00,1400.00 2924.00,1400.00
             2924.00,1400.00 2932.00,1433.00 2932.00,1433.00
             2932.00,1433.00 2946.00,1433.00 2946.00,1433.00
             2946.00,1433.00 2975.00,1431.00 2975.00,1431.00
             2975.00,1431.00 3060.00,1431.00 3060.00,1431.00
             3060.00,1431.00 3074.00,1430.00 3074.00,1430.00
             3074.00,1430.00 3101.00,1430.00 3101.00,1430.00
             3101.00,1430.00 3116.00,1431.00 3116.00,1431.00
             3116.00,1431.00 3134.00,1432.00 3134.00,1432.00
             3134.00,1432.00 3126.00,1397.00 3126.00,1397.00
             3126.00,1397.00 3117.51,1395.40 3117.51,1395.40
             3117.51,1395.40 3111.86,1381.00 3111.86,1381.00
             3111.86,1381.00 3102.33,1351.00 3102.33,1351.00
             3102.33,1351.00 3070.98,1251.00 3070.98,1251.00
             3070.98,1251.00 3054.00,1196.00 3054.00,1196.00
             3054.00,1196.00 3063.00,1197.00 3063.00,1197.00
             3063.00,1197.00 3055.00,1167.00 3055.00,1167.00 Z
           M 2656.00,1305.00
           C 2656.00,1305.00 2657.00,1311.00 2657.00,1311.00
             2657.00,1311.00 2656.00,1305.00 2656.00,1305.00 Z
           M 2696.00,1322.00
           C 2696.00,1322.00 2698.00,1329.00 2698.00,1329.00
             2695.47,1326.11 2695.80,1325.77 2696.00,1322.00 Z
           M 2693.00,1332.00
           C 2693.00,1332.00 2699.00,1332.00 2699.00,1332.00
             2699.00,1332.00 2703.00,1354.00 2703.00,1354.00
             2703.00,1354.00 2684.00,1348.00 2684.00,1348.00
             2687.25,1347.17 2692.29,1346.32 2694.89,1344.10
             2698.41,1341.07 2695.31,1338.85 2691.99,1338.11
             2691.99,1338.11 2688.00,1338.11 2688.00,1338.11
             2688.00,1338.11 2688.00,1336.00 2688.00,1336.00
             2688.00,1336.00 2693.00,1336.00 2693.00,1336.00
             2693.00,1336.00 2693.00,1332.00 2693.00,1332.00 Z
           M 2139.00,1346.00
           C 2139.00,1346.00 2154.00,1350.00 2154.00,1350.00
             2154.00,1350.00 2143.58,1360.32 2143.58,1360.32
             2143.58,1360.32 2140.00,1366.00 2140.00,1366.00
             2140.00,1366.00 2139.00,1346.00 2139.00,1346.00 Z
           M 2150.00,1370.00
           C 2150.00,1370.00 2158.00,1370.00 2158.00,1370.00
             2155.85,1375.59 2154.74,1373.31 2151.55,1376.56
             2148.00,1380.17 2150.52,1382.37 2143.00,1385.00
             2143.00,1385.00 2139.00,1378.00 2139.00,1378.00
             2144.90,1377.07 2148.16,1376.10 2150.00,1370.00 Z
           M 2706.00,1374.00
           C 2706.00,1374.00 2709.00,1382.00 2709.00,1382.00
             2701.51,1381.74 2700.61,1379.30 2706.00,1374.00 Z
           M 2749.00,1391.00
           C 2749.00,1391.00 2756.00,1393.00 2756.00,1393.00
             2752.81,1392.96 2751.22,1393.47 2749.00,1391.00 Z
           M 2759.00,1405.00
           C 2759.00,1405.00 2760.00,1405.00 2760.00,1405.00
             2760.00,1405.00 2759.00,1406.00 2759.00,1406.00
             2759.00,1406.00 2759.00,1405.00 2759.00,1405.00 Z
           M 3775.00,1531.00
           C 3778.57,1534.67 3778.51,1537.29 3774.00,1540.00
             3774.00,1540.00 3789.26,1572.00 3789.26,1572.00
             3789.26,1572.00 3839.31,1678.00 3839.31,1678.00
             3839.31,1678.00 3874.69,1754.00 3874.69,1754.00
             3874.69,1754.00 3902.26,1814.00 3902.26,1814.00
             3902.26,1814.00 3936.74,1883.00 3936.74,1883.00
             3936.74,1883.00 3958.31,1932.00 3958.31,1932.00
             3958.31,1932.00 3971.55,1959.00 3971.55,1959.00
             3976.79,1971.94 3981.17,1992.35 3989.00,2003.00
             3989.00,2003.00 3950.00,2003.00 3950.00,2003.00
             3950.00,2003.00 3933.00,2002.00 3933.00,2002.00
             3933.00,2002.00 3877.00,2002.00 3877.00,2002.00
             3877.00,2002.00 3862.00,2001.00 3862.00,2001.00
             3862.00,2001.00 3802.00,2001.00 3802.00,2001.00
             3802.00,2001.00 3787.00,2000.00 3787.00,2000.00
             3787.00,2000.00 3733.00,2000.00 3733.00,2000.00
             3733.00,2000.00 3716.00,1999.00 3716.00,1999.00
             3716.00,1999.00 3658.00,1999.00 3658.00,1999.00
             3658.00,1999.00 3641.00,1998.00 3641.00,1998.00
             3641.00,1998.00 3585.00,1998.00 3585.00,1998.00
             3585.00,1998.00 3568.00,1997.00 3568.00,1997.00
             3568.00,1997.00 3514.00,1997.00 3514.00,1997.00
             3514.00,1997.00 3497.00,1996.00 3497.00,1996.00
             3497.00,1996.00 3440.00,1996.00 3440.00,1996.00
             3440.00,1996.00 3423.00,1995.00 3423.00,1995.00
             3423.00,1995.00 3384.00,1995.00 3384.00,1995.00
             3384.00,1995.00 3369.00,1994.00 3369.00,1994.00
             3369.00,1994.00 3236.00,1992.00 3236.00,1992.00
             3236.00,1992.00 3219.00,1991.00 3219.00,1991.00
             3219.00,1991.00 3184.00,1991.00 3184.00,1991.00
             3184.00,1991.00 3167.00,1990.00 3167.00,1990.00
             3167.00,1990.00 3135.00,1990.00 3135.00,1990.00
             3135.00,1990.00 3120.00,1989.00 3120.00,1989.00
             3120.00,1989.00 3085.00,1989.00 3085.00,1989.00
             3085.00,1989.00 3068.00,1988.00 3068.00,1988.00
             3068.00,1988.00 3033.00,1988.00 3033.00,1988.00
             3033.00,1988.00 3016.00,1987.00 3016.00,1987.00
             3016.00,1987.00 2984.00,1987.00 2984.00,1987.00
             2984.00,1987.00 2967.00,1986.00 2967.00,1986.00
             2967.00,1986.00 2932.00,1986.00 2932.00,1986.00
             2932.00,1986.00 2917.00,1985.00 2917.00,1985.00
             2917.00,1985.00 2883.00,1985.00 2883.00,1985.00
             2883.00,1985.00 2866.00,1984.00 2866.00,1984.00
             2866.00,1984.00 2832.00,1984.00 2832.00,1984.00
             2832.00,1984.00 2815.00,1983.00 2815.00,1983.00
             2815.00,1983.00 2783.00,1983.00 2783.00,1983.00
             2783.00,1983.00 2766.00,1982.00 2766.00,1982.00
             2766.00,1982.00 2735.00,1982.00 2735.00,1982.00
             2735.00,1982.00 2718.00,1981.00 2718.00,1981.00
             2718.00,1981.00 2684.00,1981.00 2684.00,1981.00
             2684.00,1981.00 2667.00,1980.00 2667.00,1980.00
             2667.00,1980.00 2637.00,1980.00 2637.00,1980.00
             2637.00,1980.00 2622.00,1979.00 2622.00,1979.00
             2622.00,1979.00 2605.00,1979.00 2605.00,1979.00
             2605.00,1979.00 2604.00,1965.00 2604.00,1965.00
             2604.00,1965.00 2622.00,1966.00 2622.00,1966.00
             2622.00,1966.00 2664.00,1966.00 2664.00,1966.00
             2664.00,1966.00 2681.00,1967.00 2681.00,1967.00
             2681.00,1967.00 2721.00,1967.00 2721.00,1967.00
             2721.00,1967.00 2736.00,1968.00 2736.00,1968.00
             2736.00,1968.00 2752.00,1968.00 2752.00,1968.00
             2752.00,1968.00 2744.00,1927.00 2744.00,1927.00
             2743.35,1923.75 2741.26,1911.35 2739.84,1909.31
             2737.88,1906.51 2734.01,1907.01 2731.00,1907.00
             2731.00,1907.00 2607.00,1907.00 2607.00,1907.00
             2603.80,1907.00 2592.97,1906.77 2591.01,1904.40
             2589.65,1902.76 2588.50,1892.76 2588.00,1890.00
             2588.00,1890.00 2621.00,1890.00 2621.00,1890.00
             2621.00,1890.00 2637.00,1891.00 2637.00,1891.00
             2637.00,1891.00 2662.00,1891.00 2662.00,1891.00
             2662.00,1891.00 2678.00,1892.00 2678.00,1892.00
             2678.00,1892.00 2703.00,1892.00 2703.00,1892.00
             2703.00,1892.00 2720.00,1893.00 2720.00,1893.00
             2720.00,1893.00 2746.00,1893.00 2746.00,1893.00
             2746.00,1893.00 2765.00,1894.00 2765.00,1894.00
             2765.00,1894.00 2758.00,1853.00 2758.00,1853.00
             2760.72,1852.93 2764.24,1853.11 2766.13,1850.57
             2767.67,1848.11 2766.61,1843.76 2766.13,1841.00
             2766.13,1841.00 2765.11,1822.00 2765.11,1822.00
             2765.11,1822.00 2765.11,1816.00 2765.11,1816.00
             2765.02,1812.55 2762.77,1807.06 2768.06,1806.11
             2769.48,1805.86 2772.49,1806.68 2774.00,1807.00
             2774.00,1807.00 2773.00,1804.00 2773.00,1804.00
             2773.00,1804.00 2780.00,1805.00 2780.00,1805.00
             2780.00,1805.00 2785.25,1836.00 2785.25,1836.00
             2785.79,1839.24 2786.64,1847.41 2788.59,1849.69
             2790.91,1852.39 2794.79,1851.99 2798.00,1852.00
             2798.00,1852.00 2802.61,1882.00 2802.61,1882.00
             2803.17,1884.99 2803.74,1891.27 2806.31,1892.98
             2808.33,1894.32 2812.58,1893.95 2815.00,1894.01
             2815.00,1894.01 2829.00,1895.00 2829.00,1895.00
             2829.00,1895.00 2903.00,1895.00 2903.00,1895.00
             2903.00,1895.00 2918.00,1896.00 2918.00,1896.00
             2918.00,1896.00 2987.00,1896.00 2987.00,1896.00
             2987.00,1896.00 3002.00,1897.00 3002.00,1897.00
             3002.00,1897.00 3013.00,1897.00 3013.00,1897.00
             3013.00,1897.00 3006.00,1855.00 3006.00,1855.00
             3006.00,1855.00 3013.00,1855.00 3013.00,1855.00
             3013.00,1855.00 3007.20,1824.00 3007.20,1824.00
             3006.64,1821.19 3005.18,1812.23 3003.84,1810.31
             3000.62,1805.71 2994.68,1810.58 2992.02,1804.85
             2992.02,1804.85 2987.35,1786.00 2987.35,1786.00
             2987.35,1786.00 2978.37,1749.00 2978.37,1749.00
             2978.37,1749.00 2971.87,1722.00 2971.87,1722.00
             2970.56,1716.75 2968.48,1713.13 2974.00,1710.00
             2977.73,1714.79 2981.13,1717.03 2985.00,1711.00
             2985.00,1711.00 2977.00,1707.00 2977.00,1707.00
             2977.00,1707.00 2977.00,1705.00 2977.00,1705.00
             2977.00,1705.00 2980.00,1704.00 2980.00,1704.00
             2980.00,1704.00 2975.00,1695.00 2975.00,1695.00
             2975.00,1695.00 2986.00,1696.99 2986.00,1696.99
             2986.00,1696.99 3002.00,1704.00 3002.00,1704.00
             3002.00,1704.00 3000.00,1697.00 3000.00,1697.00
             3000.00,1697.00 3005.00,1698.00 3005.00,1698.00
             3005.00,1698.00 3006.00,1697.00 3006.00,1697.00
             3006.00,1697.00 3004.00,1693.00 3004.00,1693.00
             3004.00,1693.00 3010.15,1694.60 3010.15,1694.60
             3010.15,1694.60 3013.13,1703.00 3013.13,1703.00
             3013.13,1703.00 3017.63,1720.00 3017.63,1720.00
             3017.63,1720.00 3032.87,1780.00 3032.87,1780.00
             3032.87,1780.00 3040.00,1809.00 3040.00,1809.00
             3040.00,1809.00 3029.00,1809.00 3029.00,1809.00
             3029.00,1809.00 3041.00,1858.00 3041.00,1858.00
             3043.65,1857.36 3048.92,1856.16 3051.28,1858.00
             3053.24,1859.52 3054.48,1866.43 3055.13,1869.00
             3055.13,1869.00 3062.00,1898.00 3062.00,1898.00
             3062.00,1898.00 3108.00,1898.00 3108.00,1898.00
             3108.00,1898.00 3124.00,1899.00 3124.00,1899.00
             3124.00,1899.00 3152.00,1899.00 3152.00,1899.00
             3152.00,1899.00 3169.00,1900.00 3169.00,1900.00
             3169.00,1900.00 3193.00,1900.00 3193.00,1900.00
             3193.00,1900.00 3210.00,1901.00 3210.00,1901.00
             3210.00,1901.00 3237.00,1901.00 3237.00,1901.00
             3237.00,1901.00 3252.00,1902.00 3252.00,1902.00
             3252.00,1902.00 3275.00,1902.00 3275.00,1902.00
             3275.00,1902.00 3265.00,1860.00 3265.00,1860.00
             3265.00,1860.00 3274.00,1860.00 3274.00,1860.00
             3274.00,1860.00 3265.42,1829.00 3265.42,1829.00
             3264.61,1826.15 3262.39,1817.25 3260.91,1815.31
             3257.05,1810.26 3250.51,1816.34 3247.13,1808.94
             3247.13,1808.94 3236.58,1774.00 3236.58,1774.00
             3236.58,1774.00 3218.28,1713.00 3218.28,1713.00
             3218.28,1713.00 3200.28,1653.00 3200.28,1653.00
             3200.28,1653.00 3191.00,1620.00 3191.00,1620.00
             3191.00,1620.00 3199.00,1619.00 3199.00,1619.00
             3199.00,1619.00 3190.42,1590.00 3190.42,1590.00
             3189.50,1586.85 3187.84,1579.68 3185.49,1577.60
             3183.33,1575.68 3179.72,1576.01 3177.00,1575.81
             3174.11,1575.99 3168.59,1576.17 3166.00,1575.81
             3166.00,1575.81 3137.00,1564.67 3137.00,1564.67
             3122.07,1559.80 3106.54,1557.10 3091.00,1555.00
             3091.00,1555.00 3088.26,1543.60 3088.26,1543.60
             3088.26,1543.60 3081.00,1542.00 3081.00,1542.00
             3081.00,1542.00 3049.00,1542.00 3049.00,1542.00
             3049.00,1542.00 3053.00,1555.00 3053.00,1555.00
             3053.00,1555.00 3039.00,1556.60 3039.00,1556.60
             3039.00,1556.60 3028.00,1560.00 3028.00,1560.00
             3028.00,1560.00 3029.00,1560.00 3029.00,1560.00
             3029.00,1560.00 3030.00,1558.00 3030.00,1558.00
             3030.00,1558.00 3011.00,1548.00 3011.00,1548.00
             3019.24,1548.00 3027.10,1549.79 3030.00,1540.00
             3030.00,1540.00 3025.00,1539.00 3025.00,1539.00
             3025.00,1539.00 3043.00,1538.00 3043.00,1538.00
             3043.00,1538.00 3117.00,1538.00 3117.00,1538.00
             3117.00,1538.00 3134.00,1537.00 3134.00,1537.00
             3134.00,1537.00 3235.00,1537.00 3235.00,1537.00
             3246.82,1536.84 3241.95,1532.73 3257.00,1533.00
             3267.41,1533.19 3261.18,1536.97 3274.00,1537.00
             3274.00,1537.00 3308.00,1537.00 3308.00,1537.00
             3308.00,1537.00 3325.00,1536.00 3325.00,1536.00
             3325.00,1536.00 3398.00,1536.00 3398.00,1536.00
             3398.00,1536.00 3413.00,1535.00 3413.00,1535.00
             3413.00,1535.00 3579.00,1535.00 3579.00,1535.00
             3579.00,1535.00 3722.00,1535.00 3722.00,1535.00
             3722.00,1535.00 3756.00,1535.00 3756.00,1535.00
             3764.22,1535.00 3768.38,1536.55 3775.00,1531.00 Z
           M 3465.00,1540.00
           C 3465.00,1540.00 3420.00,1540.00 3420.00,1540.00
             3420.00,1540.00 3424.00,1554.00 3424.00,1554.00
             3407.02,1554.01 3389.14,1557.74 3373.00,1562.89
             3365.67,1565.23 3363.99,1568.16 3360.00,1569.44
             3357.65,1570.19 3344.10,1571.00 3341.00,1571.00
             3341.00,1571.00 3355.00,1617.00 3355.00,1617.00
             3355.00,1617.00 3365.00,1617.00 3365.00,1617.00
             3365.00,1617.00 3382.95,1668.00 3382.95,1668.00
             3382.95,1668.00 3416.69,1761.00 3416.69,1761.00
             3416.69,1761.00 3428.69,1794.00 3428.69,1794.00
             3431.14,1800.86 3433.63,1805.52 3434.00,1813.00
             3434.00,1813.00 3424.00,1813.00 3424.00,1813.00
             3424.00,1813.00 3442.00,1864.00 3442.00,1864.00
             3442.00,1864.00 3453.70,1865.02 3453.70,1865.02
             3453.70,1865.02 3458.66,1876.00 3458.66,1876.00
             3458.66,1876.00 3468.00,1908.00 3468.00,1908.00
             3468.00,1908.00 3483.00,1907.04 3483.00,1907.04
             3483.00,1907.04 3499.00,1907.04 3499.00,1907.04
             3499.00,1907.04 3511.00,1908.00 3511.00,1908.00
             3511.00,1908.00 3549.00,1908.00 3549.00,1908.00
             3549.00,1908.00 3566.00,1909.00 3566.00,1909.00
             3566.00,1909.00 3657.00,1909.00 3657.00,1909.00
             3657.00,1909.00 3670.00,1910.00 3670.00,1910.00
             3670.00,1910.00 3695.00,1910.00 3695.00,1910.00
             3695.00,1910.00 3681.00,1866.00 3681.00,1866.00
             3681.00,1866.00 3690.00,1866.00 3690.00,1866.00
             3690.00,1866.00 3675.80,1829.00 3675.80,1829.00
             3675.80,1829.00 3669.50,1816.02 3669.50,1816.02
             3669.50,1816.02 3657.00,1815.00 3657.00,1815.00
             3657.00,1815.00 3648.28,1792.00 3648.28,1792.00
             3648.28,1792.00 3635.42,1761.00 3635.42,1761.00
             3635.42,1761.00 3596.58,1667.00 3596.58,1667.00
             3596.58,1667.00 3575.00,1614.00 3575.00,1614.00
             3575.00,1614.00 3585.00,1615.00 3585.00,1615.00
             3585.00,1615.00 3571.80,1582.00 3571.80,1582.00
             3570.61,1579.03 3568.49,1571.93 3565.61,1570.57
             3565.61,1570.57 3544.00,1568.62 3544.00,1568.62
             3544.00,1568.62 3527.00,1562.71 3527.00,1562.71
             3509.87,1557.82 3510.02,1558.33 3493.00,1556.00
             3493.00,1556.00 3477.00,1554.07 3477.00,1554.07
             3474.03,1553.80 3469.81,1553.76 3467.59,1551.44
             3465.49,1549.23 3465.14,1543.00 3465.00,1540.00 Z
           M 1841.00,1544.00
           C 1841.00,1544.00 2089.00,1544.00 2089.00,1544.00
             2087.65,1547.95 2086.59,1547.32 2085.00,1550.21
             2082.13,1555.42 2085.65,1559.96 2074.00,1559.00
             2074.00,1559.00 2075.00,1547.00 2075.00,1547.00
             2075.00,1547.00 2039.00,1547.00 2039.00,1547.00
             2039.00,1547.00 2040.00,1559.00 2040.00,1559.00
             2028.52,1559.10 2011.60,1562.49 2001.00,1566.86
             2001.00,1566.86 1977.00,1577.86 1977.00,1577.86
             1974.97,1578.08 1972.13,1578.00 1970.00,1577.86
             1970.00,1577.86 1961.00,1577.86 1961.00,1577.86
             1961.00,1577.86 1962.00,1598.00 1962.00,1598.00
             1962.00,1598.00 1962.00,1619.00 1962.00,1619.00
             1962.00,1619.00 1970.00,1619.00 1970.00,1619.00
             1970.00,1619.00 1970.00,1718.00 1970.00,1718.00
             1970.00,1718.00 1969.00,1733.00 1969.00,1733.00
             1969.00,1733.00 1969.00,1795.00 1969.00,1795.00
             1969.00,1795.00 1958.00,1795.00 1958.00,1795.00
             1958.00,1795.00 1957.00,1813.00 1957.00,1813.00
             1957.00,1813.00 1957.00,1842.00 1957.00,1842.00
             1957.00,1842.00 1966.00,1842.00 1966.00,1842.00
             1966.00,1842.00 1965.00,1857.00 1965.00,1857.00
             1965.00,1857.00 1965.00,1881.00 1965.00,1881.00
             1965.00,1881.00 2041.00,1881.00 2041.00,1881.00
             2041.00,1881.00 2056.00,1882.00 2056.00,1882.00
             2056.00,1882.00 2127.00,1882.00 2127.00,1882.00
             2127.00,1882.00 2142.00,1883.00 2142.00,1883.00
             2142.00,1883.00 2152.00,1883.00 2152.00,1883.00
             2152.00,1883.00 2152.00,1844.00 2152.00,1844.00
             2152.00,1844.00 2162.00,1845.00 2162.00,1845.00
             2162.00,1845.00 2161.00,1824.00 2161.00,1824.00
             2161.00,1824.00 2161.00,1799.00 2161.00,1799.00
             2161.00,1799.00 2151.00,1799.00 2151.00,1799.00
             2151.00,1799.00 2150.00,1758.00 2150.00,1758.00
             2150.00,1758.00 2149.00,1745.00 2149.00,1745.00
             2149.00,1745.00 2149.00,1724.00 2149.00,1724.00
             2149.00,1724.00 2148.40,1702.04 2148.40,1702.04
             2148.40,1702.04 2151.00,1698.00 2151.00,1698.00
             2151.00,1698.00 2155.00,1699.00 2155.00,1699.00
             2159.22,1709.29 2161.43,1704.01 2168.00,1702.00
             2168.00,1702.00 2173.00,1705.00 2173.00,1705.00
             2173.00,1705.00 2171.00,1717.00 2171.00,1717.00
             2171.00,1717.00 2181.00,1716.00 2181.00,1716.00
             2181.00,1716.00 2181.00,1711.00 2181.00,1711.00
             2181.00,1711.00 2184.00,1714.00 2184.00,1714.00
             2187.36,1711.39 2187.78,1711.10 2189.00,1707.00
             2191.30,1707.00 2195.77,1706.80 2197.77,1707.74
             2201.11,1709.29 2200.95,1712.85 2201.00,1716.00
             2201.14,1727.09 2199.75,1724.09 2195.00,1733.00
             2196.41,1732.22 2198.94,1730.10 2200.22,1729.86
             2204.20,1729.11 2205.07,1733.86 2208.00,1725.00
             2208.00,1725.00 2211.00,1725.00 2211.00,1725.00
             2216.16,1733.28 2220.86,1727.27 2223.00,1737.00
             2232.74,1733.39 2230.09,1738.42 2237.00,1748.00
             2237.50,1741.69 2238.45,1743.88 2245.00,1739.00
             2244.23,1748.36 2234.67,1749.03 2242.00,1757.00
             2242.00,1757.00 2239.48,1777.00 2239.48,1777.00
             2239.48,1777.00 2238.01,1784.94 2238.01,1784.94
             2238.16,1785.87 2238.56,1786.69 2239.34,1787.26
             2242.79,1789.73 2246.16,1783.47 2247.14,1781.00
             2248.89,1776.62 2248.37,1776.72 2251.00,1772.00
             2251.00,1772.00 2246.00,1771.00 2246.00,1771.00
             2248.57,1762.52 2252.54,1766.94 2254.00,1758.00
             2254.00,1758.00 2259.00,1758.00 2259.00,1758.00
             2259.00,1758.00 2260.00,1763.00 2260.00,1763.00
             2260.00,1763.00 2262.00,1763.00 2262.00,1763.00
             2262.00,1763.00 2268.00,1748.00 2268.00,1748.00
             2268.00,1748.00 2270.00,1753.00 2270.00,1753.00
             2268.36,1755.94 2269.21,1756.10 2268.38,1758.84
             2267.24,1762.56 2263.16,1766.59 2270.84,1767.00
             2270.84,1767.00 2270.84,1775.00 2270.84,1775.00
             2270.03,1781.33 2268.17,1782.33 2277.00,1788.00
             2277.00,1788.00 2279.00,1782.00 2279.00,1782.00
             2279.00,1782.00 2290.00,1787.00 2290.00,1787.00
             2290.00,1787.00 2291.00,1781.00 2291.00,1781.00
             2293.89,1783.14 2300.43,1784.76 2303.82,1782.97
             2305.31,1782.17 2305.94,1781.18 2307.00,1780.00
             2307.00,1780.00 2312.00,1784.00 2312.00,1784.00
             2312.00,1784.00 2314.00,1782.00 2314.00,1782.00
             2314.00,1782.00 2315.00,1798.00 2315.00,1798.00
             2312.12,1798.52 2306.70,1798.79 2304.97,1801.31
             2302.96,1804.42 2304.67,1811.40 2304.97,1815.00
             2304.97,1815.00 2306.09,1837.00 2306.09,1837.00
             2306.09,1837.00 2307.00,1846.00 2307.00,1846.00
             2307.00,1846.00 2318.00,1846.00 2318.00,1846.00
             2318.00,1846.00 2320.00,1885.00 2320.00,1885.00
             2320.00,1885.00 2372.00,1885.00 2372.00,1885.00
             2372.00,1885.00 2388.00,1886.00 2388.00,1886.00
             2388.00,1886.00 2419.00,1886.00 2419.00,1886.00
             2419.00,1886.00 2436.00,1887.00 2436.00,1887.00
             2436.00,1887.00 2464.00,1887.00 2464.00,1887.00
             2464.00,1887.00 2481.00,1888.00 2481.00,1888.00
             2481.00,1888.00 2517.00,1888.00 2517.00,1888.00
             2517.00,1888.00 2514.00,1849.00 2514.00,1849.00
             2514.00,1849.00 2523.00,1848.00 2523.00,1848.00
             2523.00,1848.00 2518.00,1808.00 2518.00,1808.00
             2518.00,1808.00 2523.00,1806.59 2523.00,1806.59
             2530.04,1805.92 2530.40,1814.49 2533.19,1818.96
             2535.68,1822.96 2538.39,1824.03 2540.77,1828.01
             2542.69,1831.21 2543.97,1838.14 2544.79,1842.00
             2544.79,1842.00 2547.41,1858.00 2547.41,1858.00
             2547.41,1858.00 2549.51,1864.00 2549.51,1864.00
             2549.51,1864.00 2551.69,1876.00 2551.69,1876.00
             2551.69,1876.00 2553.76,1889.00 2553.76,1889.00
             2555.71,1896.44 2559.49,1899.98 2561.38,1906.00
             2565.16,1918.05 2562.99,1919.86 2564.63,1928.00
             2564.63,1928.00 2570.57,1946.00 2570.57,1946.00
             2570.57,1946.00 2573.83,1964.00 2573.83,1964.00
             2573.83,1964.00 2575.00,1978.00 2575.00,1978.00
             2575.00,1978.00 2537.00,1978.00 2537.00,1978.00
             2537.00,1978.00 2520.00,1977.00 2520.00,1977.00
             2520.00,1977.00 2483.00,1977.00 2483.00,1977.00
             2483.00,1977.00 2491.00,1967.00 2491.00,1967.00
             2482.83,1968.33 2484.52,1972.26 2480.39,1975.01
             2478.52,1976.26 2475.20,1976.00 2473.00,1976.00
             2473.00,1976.00 2439.00,1976.00 2439.00,1976.00
             2439.00,1976.00 2422.00,1975.00 2422.00,1975.00
             2422.00,1975.00 2392.00,1975.00 2392.00,1975.00
             2392.00,1975.00 2375.00,1974.00 2375.00,1974.00
             2375.00,1974.00 2342.00,1974.00 2342.00,1974.00
             2342.00,1974.00 2325.00,1973.00 2325.00,1973.00
             2325.00,1973.00 2292.00,1973.00 2292.00,1973.00
             2292.00,1973.00 2275.00,1972.00 2275.00,1972.00
             2275.00,1972.00 2243.00,1972.00 2243.00,1972.00
             2243.00,1972.00 2226.00,1971.00 2226.00,1971.00
             2226.00,1971.00 2202.00,1971.00 2202.00,1971.00
             2202.00,1971.00 2185.00,1970.00 2185.00,1970.00
             2185.00,1970.00 2123.00,1969.00 2123.00,1969.00
             2123.00,1969.00 2106.00,1968.00 2106.00,1968.00
             2106.00,1968.00 2081.00,1968.00 2081.00,1968.00
             2081.00,1968.00 2066.00,1967.00 2066.00,1967.00
             2066.00,1967.00 1963.00,1965.00 1963.00,1965.00
             1963.00,1965.00 1946.00,1964.00 1946.00,1964.00
             1946.00,1964.00 1922.00,1964.00 1922.00,1964.00
             1922.00,1964.00 1905.00,1963.00 1905.00,1963.00
             1905.00,1963.00 1883.00,1963.00 1883.00,1963.00
             1883.00,1963.00 1866.00,1962.00 1866.00,1962.00
             1866.00,1962.00 1843.00,1962.00 1843.00,1962.00
             1843.00,1962.00 1831.00,1961.04 1831.00,1961.04
             1831.00,1961.04 1817.00,1961.04 1817.00,1961.04
             1817.00,1961.04 1817.96,1950.00 1817.96,1950.00
             1817.96,1950.00 1817.96,1940.00 1817.96,1940.00
             1817.96,1940.00 1819.00,1924.00 1819.00,1924.00
             1819.00,1924.00 1819.91,1912.00 1819.91,1912.00
             1819.91,1912.00 1821.09,1886.00 1821.09,1886.00
             1821.09,1886.00 1822.00,1879.00 1822.00,1879.00
             1822.00,1879.00 1822.00,1869.00 1822.00,1869.00
             1822.00,1869.00 1823.00,1859.00 1823.00,1859.00
             1823.00,1859.00 1824.28,1834.00 1824.28,1834.00
             1824.28,1834.00 1826.90,1822.00 1826.90,1822.00
             1826.90,1822.00 1825.06,1813.99 1825.06,1813.99
             1825.06,1813.99 1826.00,1806.00 1826.00,1806.00
             1826.00,1806.00 1826.00,1795.00 1826.00,1795.00
             1826.00,1795.00 1827.00,1782.00 1827.00,1782.00
             1827.00,1782.00 1827.96,1771.00 1827.96,1771.00
             1827.96,1771.00 1827.96,1763.00 1827.96,1763.00
             1827.96,1763.00 1829.00,1746.00 1829.00,1746.00
             1829.00,1746.00 1830.00,1731.00 1830.00,1731.00
             1830.00,1731.00 1832.00,1695.00 1832.00,1695.00
             1832.00,1695.00 1833.00,1680.00 1833.00,1680.00
             1833.00,1680.00 1834.00,1659.00 1834.00,1659.00
             1834.00,1659.00 1835.00,1645.00 1835.00,1645.00
             1835.00,1645.00 1836.00,1627.00 1836.00,1627.00
             1836.00,1627.00 1837.00,1610.00 1837.00,1610.00
             1837.00,1610.00 1839.00,1572.00 1839.00,1572.00
             1839.00,1572.00 1839.91,1561.00 1839.91,1561.00
             1839.91,1561.00 1841.00,1544.00 1841.00,1544.00 Z
           M 2981.00,1555.00
           C 2982.05,1551.83 2983.21,1550.06 2987.00,1550.50
             2990.59,1550.91 2993.98,1554.23 2999.00,1555.70
             3008.96,1558.61 3011.73,1554.24 3021.00,1562.00
             3006.98,1565.28 2984.83,1576.83 2972.00,1584.00
             2972.00,1584.00 2970.00,1582.00 2970.00,1582.00
             2970.00,1582.00 2970.00,1581.00 2970.00,1581.00
             2972.65,1575.67 2970.48,1575.02 2967.00,1570.00
             2974.34,1568.74 2971.56,1565.03 2975.28,1564.06
             2977.95,1563.37 2982.40,1566.14 2985.00,1567.04
             2988.44,1568.22 2991.43,1568.00 2995.00,1568.00
             2989.54,1562.28 2988.07,1559.13 2981.00,1555.00 Z
           M 2997.00,1671.00
           C 2997.00,1671.00 2998.00,1671.00 2998.00,1671.00
             2998.00,1671.00 2997.00,1672.00 2997.00,1672.00
             2997.00,1672.00 2997.00,1671.00 2997.00,1671.00 Z
           M 3004.00,1971.00
           C 3004.00,1971.00 2995.00,1929.00 2995.00,1929.00
             2995.00,1929.00 2990.44,1914.02 2990.44,1914.02
             2990.44,1914.02 2971.00,1912.00 2971.00,1912.00
             2971.00,1912.00 2920.00,1912.00 2920.00,1912.00
             2920.00,1912.00 2903.00,1911.00 2903.00,1911.00
             2903.00,1911.00 2852.00,1911.00 2852.00,1911.00
             2852.00,1911.00 2836.00,1910.00 2836.00,1910.00
             2836.00,1910.00 2844.00,1951.00 2844.00,1951.00
             2844.00,1951.00 2847.98,1967.40 2847.98,1967.40
             2847.98,1967.40 2856.00,1969.00 2856.00,1969.00
             2856.00,1969.00 2880.00,1969.00 2880.00,1969.00
             2880.00,1969.00 2897.00,1970.00 2897.00,1970.00
             2897.00,1970.00 2955.00,1970.00 2955.00,1970.00
             2955.00,1970.00 2972.00,1971.00 2972.00,1971.00
             2972.00,1971.00 3004.00,1971.00 3004.00,1971.00 Z">
        <title>Auswahl</title>
  </path>
</svg>
